<svg width="60" height="60" viewBox="0 0 60 60" fill="none" xmlns="http://www.w3.org/2000/svg">
<rect width="60" height="60" rx="30" fill="white" fill-opacity="0.1"/>
<mask id="mask0_8701_799" style="mask-type:luminance" maskUnits="userSpaceOnUse" x="8" y="8" width="44" height="44">
<path d="M52 8H8V52H52V8Z" fill="white"/>
</mask>
<g mask="url(#mask0_8701_799)">
<path d="M29.945 49.7083C19.0916 49.7083 10.2366 40.8716 10.2366 30C10.2366 19.1283 19.0916 10.2916 29.945 10.2916C40.7983 10.2916 49.6533 19.1283 49.6533 30C49.6533 40.8716 40.8166 49.7083 29.945 49.7083ZM29.945 13.0416C20.5949 13.0416 12.9866 20.65 12.9866 30C12.9866 39.35 20.5949 46.9583 29.945 46.9583C39.295 46.9583 46.9033 39.35 46.9033 30C46.9033 20.65 39.295 13.0416 29.945 13.0416Z" fill="white"/>
<path d="M27.3601 39.1492C26.5535 39.1492 25.7834 38.9475 25.1051 38.5625C23.5284 37.6459 22.6484 35.8492 22.6484 33.5025V27.3609C22.6484 25.0142 23.5101 23.2175 25.0868 22.3008C26.6635 21.3842 28.6618 21.5308 30.6968 22.7042L36.0135 25.7658C38.0485 26.9392 39.1668 28.5892 39.1668 30.4225C39.1668 32.2375 38.0485 33.9059 36.0135 35.0792L30.6968 38.1409C29.5601 38.8192 28.4051 39.1492 27.3601 39.1492Z" fill="white"/>
</g>
</svg>
