<svg width="78" height="78" viewBox="0 0 78 78" fill="none" xmlns="http://www.w3.org/2000/svg">
<g clip-path="url(#clip0_58_2)">
<path d="M78 0H0V78H78V0Z" fill="white"/>
<path d="M26.071 4.72726H23.6364V7.16181H26.071V4.72726Z" fill="black"/>
<path d="M28.4345 4.72726H26V7.16181H28.4345V4.72726Z" fill="black"/>
<path d="M30.7982 4.72726H28.3636V7.16181H30.7982V4.72726Z" fill="black"/>
<path d="M33.1618 4.72726H30.7273V7.16181H33.1618V4.72726Z" fill="black"/>
<path d="M35.5255 4.72726H33.0909V7.16181H35.5255V4.72726Z" fill="black"/>
<path d="M44.98 4.72726H42.5455V7.16181H44.98V4.72726Z" fill="black"/>
<path d="M47.3437 4.72726H44.9091V7.16181H47.3437V4.72726Z" fill="black"/>
<path d="M49.7073 4.72726H47.2728V7.16181H49.7073V4.72726Z" fill="black"/>
<path d="M26.071 7.09091H23.6364V9.52546H26.071V7.09091Z" fill="black"/>
<path d="M28.4345 7.09091H26V9.52546H28.4345V7.09091Z" fill="black"/>
<path d="M30.7982 7.09091H28.3636V9.52546H30.7982V7.09091Z" fill="black"/>
<path d="M35.5255 7.09091H33.0909V9.52546H35.5255V7.09091Z" fill="black"/>
<path d="M40.2527 7.09091H37.8182V9.52546H40.2527V7.09091Z" fill="black"/>
<path d="M42.6164 7.09091H40.1818V9.52546H42.6164V7.09091Z" fill="black"/>
<path d="M47.3437 7.09091H44.9091V9.52546H47.3437V7.09091Z" fill="black"/>
<path d="M54.4345 7.09091H52V9.52546H54.4345V7.09091Z" fill="black"/>
<path d="M26.071 9.45453H23.6364V11.8891H26.071V9.45453Z" fill="black"/>
<path d="M33.1618 9.45453H30.7273V11.8891H33.1618V9.45453Z" fill="black"/>
<path d="M37.8891 9.45453H35.4546V11.8891H37.8891V9.45453Z" fill="black"/>
<path d="M40.2527 9.45453H37.8182V11.8891H40.2527V9.45453Z" fill="black"/>
<path d="M42.6164 9.45453H40.1818V11.8891H42.6164V9.45453Z" fill="black"/>
<path d="M49.7073 9.45453H47.2728V11.8891H49.7073V9.45453Z" fill="black"/>
<path d="M52.071 9.45453H49.6364V11.8891H52.071V9.45453Z" fill="black"/>
<path d="M54.4345 9.45453H52V11.8891H54.4345V9.45453Z" fill="black"/>
<path d="M30.7982 11.8182H28.3636V14.2527H30.7982V11.8182Z" fill="black"/>
<path d="M33.1618 11.8182H30.7273V14.2527H33.1618V11.8182Z" fill="black"/>
<path d="M37.8891 11.8182H35.4546V14.2527H37.8891V11.8182Z" fill="black"/>
<path d="M44.98 11.8182H42.5455V14.2527H44.98V11.8182Z" fill="black"/>
<path d="M47.3437 11.8182H44.9091V14.2527H47.3437V11.8182Z" fill="black"/>
<path d="M52.071 11.8182H49.6364V14.2527H52.071V11.8182Z" fill="black"/>
<path d="M30.7982 14.1818H28.3636V16.6164H30.7982V14.1818Z" fill="black"/>
<path d="M33.1618 14.1818H30.7273V16.6164H33.1618V14.1818Z" fill="black"/>
<path d="M40.2527 14.1818H37.8182V16.6164H40.2527V14.1818Z" fill="black"/>
<path d="M47.3437 14.1818H44.9091V16.6164H47.3437V14.1818Z" fill="black"/>
<path d="M49.7073 14.1818H47.2728V16.6164H49.7073V14.1818Z" fill="black"/>
<path d="M52.071 14.1818H49.6364V16.6164H52.071V14.1818Z" fill="black"/>
<path d="M26.071 16.5454H23.6364V18.98H26.071V16.5454Z" fill="black"/>
<path d="M28.4345 16.5454H26V18.98H28.4345V16.5454Z" fill="black"/>
<path d="M37.8891 16.5454H35.4546V18.98H37.8891V16.5454Z" fill="black"/>
<path d="M44.98 16.5454H42.5455V18.98H44.98V16.5454Z" fill="black"/>
<path d="M47.3437 16.5454H44.9091V18.98H47.3437V16.5454Z" fill="black"/>
<path d="M26.071 18.9091H23.6364V21.3436H26.071V18.9091Z" fill="black"/>
<path d="M30.7982 18.9091H28.3636V21.3436H30.7982V18.9091Z" fill="black"/>
<path d="M35.5255 18.9091H33.0909V21.3436H35.5255V18.9091Z" fill="black"/>
<path d="M40.2527 18.9091H37.8182V21.3436H40.2527V18.9091Z" fill="black"/>
<path d="M44.98 18.9091H42.5455V21.3436H44.98V18.9091Z" fill="black"/>
<path d="M49.7073 18.9091H47.2728V21.3436H49.7073V18.9091Z" fill="black"/>
<path d="M54.4345 18.9091H52V21.3436H54.4345V18.9091Z" fill="black"/>
<path d="M26.071 21.2727H23.6364V23.7073H26.071V21.2727Z" fill="black"/>
<path d="M37.8891 21.2727H35.4546V23.7073H37.8891V21.2727Z" fill="black"/>
<path d="M44.98 21.2727H42.5455V23.7073H44.98V21.2727Z" fill="black"/>
<path d="M47.3437 21.2727H44.9091V23.7073H47.3437V21.2727Z" fill="black"/>
<path d="M49.7073 21.2727H47.2728V23.7073H49.7073V21.2727Z" fill="black"/>
<path d="M52.071 21.2727H49.6364V23.7073H52.071V21.2727Z" fill="black"/>
<path d="M11.8891 23.6364H9.45459V26.0709H11.8891V23.6364Z" fill="black"/>
<path d="M14.2527 23.6364H11.8182V26.0709H14.2527V23.6364Z" fill="black"/>
<path d="M16.6164 23.6364H14.1818V26.0709H16.6164V23.6364Z" fill="black"/>
<path d="M21.3437 23.6364H18.9091V26.0709H21.3437V23.6364Z" fill="black"/>
<path d="M26.071 23.6364H23.6364V26.0709H26.071V23.6364Z" fill="black"/>
<path d="M33.1618 23.6364H30.7273V26.0709H33.1618V23.6364Z" fill="black"/>
<path d="M35.5255 23.6364H33.0909V26.0709H35.5255V23.6364Z" fill="black"/>
<path d="M37.8891 23.6364H35.4546V26.0709H37.8891V23.6364Z" fill="black"/>
<path d="M40.2527 23.6364H37.8182V26.0709H40.2527V23.6364Z" fill="black"/>
<path d="M44.98 23.6364H42.5455V26.0709H44.98V23.6364Z" fill="black"/>
<path d="M56.7982 23.6364H54.3636V26.0709H56.7982V23.6364Z" fill="black"/>
<path d="M59.1618 23.6364H56.7273V26.0709H59.1618V23.6364Z" fill="black"/>
<path d="M61.5255 23.6364H59.0909V26.0709H61.5255V23.6364Z" fill="black"/>
<path d="M68.6164 23.6364H66.1818V26.0709H68.6164V23.6364Z" fill="black"/>
<path d="M70.98 23.6364H68.5455V26.0709H70.98V23.6364Z" fill="black"/>
<path d="M73.3437 23.6364H70.9091V26.0709H73.3437V23.6364Z" fill="black"/>
<path d="M7.16184 26H4.72729V28.4345H7.16184V26Z" fill="black"/>
<path d="M11.8891 26H9.45459V28.4345H11.8891V26Z" fill="black"/>
<path d="M18.98 26H16.5455V28.4345H18.98V26Z" fill="black"/>
<path d="M23.7073 26H21.2728V28.4345H23.7073V26Z" fill="black"/>
<path d="M30.7982 26H28.3636V28.4345H30.7982V26Z" fill="black"/>
<path d="M33.1618 26H30.7273V28.4345H33.1618V26Z" fill="black"/>
<path d="M35.5255 26H33.0909V28.4345H35.5255V26Z" fill="black"/>
<path d="M40.2527 26H37.8182V28.4345H40.2527V26Z" fill="black"/>
<path d="M44.98 26H42.5455V28.4345H44.98V26Z" fill="black"/>
<path d="M49.7073 26H47.2728V28.4345H49.7073V26Z" fill="black"/>
<path d="M52.071 26H49.6364V28.4345H52.071V26Z" fill="black"/>
<path d="M54.4345 26H52V28.4345H54.4345V26Z" fill="black"/>
<path d="M59.1618 26H56.7273V28.4345H59.1618V26Z" fill="black"/>
<path d="M61.5255 26H59.0909V28.4345H61.5255V26Z" fill="black"/>
<path d="M63.8891 26H61.4546V28.4345H63.8891V26Z" fill="black"/>
<path d="M66.2527 26H63.8182V28.4345H66.2527V26Z" fill="black"/>
<path d="M73.3437 26H70.9091V28.4345H73.3437V26Z" fill="black"/>
<path d="M7.16184 28.3636H4.72729V30.7982H7.16184V28.3636Z" fill="black"/>
<path d="M9.52549 28.3636H7.09094V30.7982H9.52549V28.3636Z" fill="black"/>
<path d="M11.8891 28.3636H9.45459V30.7982H11.8891V28.3636Z" fill="black"/>
<path d="M14.2527 28.3636H11.8182V30.7982H14.2527V28.3636Z" fill="black"/>
<path d="M18.98 28.3636H16.5455V30.7982H18.98V28.3636Z" fill="black"/>
<path d="M21.3437 28.3636H18.9091V30.7982H21.3437V28.3636Z" fill="black"/>
<path d="M23.7073 28.3636H21.2728V30.7982H23.7073V28.3636Z" fill="black"/>
<path d="M26.071 28.3636H23.6364V30.7982H26.071V28.3636Z" fill="black"/>
<path d="M28.4345 28.3636H26V30.7982H28.4345V28.3636Z" fill="black"/>
<path d="M30.7982 28.3636H28.3636V30.7982H30.7982V28.3636Z" fill="black"/>
<path d="M33.1618 28.3636H30.7273V30.7982H33.1618V28.3636Z" fill="black"/>
<path d="M42.6164 28.3636H40.1818V30.7982H42.6164V28.3636Z" fill="black"/>
<path d="M47.3437 28.3636H44.9091V30.7982H47.3437V28.3636Z" fill="black"/>
<path d="M49.7073 28.3636H47.2728V30.7982H49.7073V28.3636Z" fill="black"/>
<path d="M54.4345 28.3636H52V30.7982H54.4345V28.3636Z" fill="black"/>
<path d="M56.7982 28.3636H54.3636V30.7982H56.7982V28.3636Z" fill="black"/>
<path d="M59.1618 28.3636H56.7273V30.7982H59.1618V28.3636Z" fill="black"/>
<path d="M16.6164 30.7273H14.1818V33.1618H16.6164V30.7273Z" fill="black"/>
<path d="M26.071 30.7273H23.6364V33.1618H26.071V30.7273Z" fill="black"/>
<path d="M28.4345 30.7273H26V33.1618H28.4345V30.7273Z" fill="black"/>
<path d="M30.7982 30.7273H28.3636V33.1618H30.7982V30.7273Z" fill="black"/>
<path d="M33.1618 30.7273H30.7273V33.1618H33.1618V30.7273Z" fill="black"/>
<path d="M37.8891 30.7273H35.4546V33.1618H37.8891V30.7273Z" fill="black"/>
<path d="M47.3437 30.7273H44.9091V33.1618H47.3437V30.7273Z" fill="black"/>
<path d="M49.7073 30.7273H47.2728V33.1618H49.7073V30.7273Z" fill="black"/>
<path d="M54.4345 30.7273H52V33.1618H54.4345V30.7273Z" fill="black"/>
<path d="M56.7982 30.7273H54.3636V33.1618H56.7982V30.7273Z" fill="black"/>
<path d="M59.1618 30.7273H56.7273V33.1618H59.1618V30.7273Z" fill="black"/>
<path d="M66.2527 30.7273H63.8182V33.1618H66.2527V30.7273Z" fill="black"/>
<path d="M70.98 30.7273H68.5455V33.1618H70.98V30.7273Z" fill="black"/>
<path d="M9.52549 33.0909H7.09094V35.5255H9.52549V33.0909Z" fill="black"/>
<path d="M11.8891 33.0909H9.45459V35.5255H11.8891V33.0909Z" fill="black"/>
<path d="M14.2527 33.0909H11.8182V35.5255H14.2527V33.0909Z" fill="black"/>
<path d="M16.6164 33.0909H14.1818V35.5255H16.6164V33.0909Z" fill="black"/>
<path d="M18.98 33.0909H16.5455V35.5255H18.98V33.0909Z" fill="black"/>
<path d="M21.3437 33.0909H18.9091V35.5255H21.3437V33.0909Z" fill="black"/>
<path d="M23.7073 33.0909H21.2728V35.5255H23.7073V33.0909Z" fill="black"/>
<path d="M33.1618 33.0909H30.7273V35.5255H33.1618V33.0909Z" fill="black"/>
<path d="M40.2527 33.0909H37.8182V35.5255H40.2527V33.0909Z" fill="black"/>
<path d="M49.7073 33.0909H47.2728V35.5255H49.7073V33.0909Z" fill="black"/>
<path d="M54.4345 33.0909H52V35.5255H54.4345V33.0909Z" fill="black"/>
<path d="M56.7982 33.0909H54.3636V35.5255H56.7982V33.0909Z" fill="black"/>
<path d="M61.5255 33.0909H59.0909V35.5255H61.5255V33.0909Z" fill="black"/>
<path d="M68.6164 33.0909H66.1818V35.5255H68.6164V33.0909Z" fill="black"/>
<path d="M70.98 33.0909H68.5455V35.5255H70.98V33.0909Z" fill="black"/>
<path d="M73.3437 33.0909H70.9091V35.5255H73.3437V33.0909Z" fill="black"/>
<path d="M9.52549 35.4545H7.09094V37.8891H9.52549V35.4545Z" fill="black"/>
<path d="M11.8891 35.4545H9.45459V37.8891H11.8891V35.4545Z" fill="black"/>
<path d="M14.2527 35.4545H11.8182V37.8891H14.2527V35.4545Z" fill="black"/>
<path d="M18.98 35.4545H16.5455V37.8891H18.98V35.4545Z" fill="black"/>
<path d="M23.7073 35.4545H21.2728V37.8891H23.7073V35.4545Z" fill="black"/>
<path d="M28.4345 35.4545H26V37.8891H28.4345V35.4545Z" fill="black"/>
<path d="M30.7982 35.4545H28.3636V37.8891H30.7982V35.4545Z" fill="black"/>
<path d="M40.2527 35.4545H37.8182V37.8891H40.2527V35.4545Z" fill="black"/>
<path d="M42.6164 35.4545H40.1818V37.8891H42.6164V35.4545Z" fill="black"/>
<path d="M47.3437 35.4545H44.9091V37.8891H47.3437V35.4545Z" fill="black"/>
<path d="M49.7073 35.4545H47.2728V37.8891H49.7073V35.4545Z" fill="black"/>
<path d="M52.071 35.4545H49.6364V37.8891H52.071V35.4545Z" fill="black"/>
<path d="M54.4345 35.4545H52V37.8891H54.4345V35.4545Z" fill="black"/>
<path d="M56.7982 35.4545H54.3636V37.8891H56.7982V35.4545Z" fill="black"/>
<path d="M59.1618 35.4545H56.7273V37.8891H59.1618V35.4545Z" fill="black"/>
<path d="M63.8891 35.4545H61.4546V37.8891H63.8891V35.4545Z" fill="black"/>
<path d="M66.2527 35.4545H63.8182V37.8891H66.2527V35.4545Z" fill="black"/>
<path d="M70.98 35.4545H68.5455V37.8891H70.98V35.4545Z" fill="black"/>
<path d="M73.3437 35.4545H70.9091V37.8891H73.3437V35.4545Z" fill="black"/>
<path d="M18.98 37.8182H16.5455V40.2527H18.98V37.8182Z" fill="black"/>
<path d="M21.3437 37.8182H18.9091V40.2527H21.3437V37.8182Z" fill="black"/>
<path d="M23.7073 37.8182H21.2728V40.2527H23.7073V37.8182Z" fill="black"/>
<path d="M28.4345 37.8182H26V40.2527H28.4345V37.8182Z" fill="black"/>
<path d="M30.7982 37.8182H28.3636V40.2527H30.7982V37.8182Z" fill="black"/>
<path d="M33.1618 37.8182H30.7273V40.2527H33.1618V37.8182Z" fill="black"/>
<path d="M35.5255 37.8182H33.0909V40.2527H35.5255V37.8182Z" fill="black"/>
<path d="M40.2527 37.8182H37.8182V40.2527H40.2527V37.8182Z" fill="black"/>
<path d="M44.98 37.8182H42.5455V40.2527H44.98V37.8182Z" fill="black"/>
<path d="M49.7073 37.8182H47.2728V40.2527H49.7073V37.8182Z" fill="black"/>
<path d="M54.4345 37.8182H52V40.2527H54.4345V37.8182Z" fill="black"/>
<path d="M61.5255 37.8182H59.0909V40.2527H61.5255V37.8182Z" fill="black"/>
<path d="M7.16184 40.1818H4.72729V42.6164H7.16184V40.1818Z" fill="black"/>
<path d="M9.52549 40.1818H7.09094V42.6164H9.52549V40.1818Z" fill="black"/>
<path d="M11.8891 40.1818H9.45459V42.6164H11.8891V40.1818Z" fill="black"/>
<path d="M26.071 40.1818H23.6364V42.6164H26.071V40.1818Z" fill="black"/>
<path d="M28.4345 40.1818H26V42.6164H28.4345V40.1818Z" fill="black"/>
<path d="M42.6164 40.1818H40.1818V42.6164H42.6164V40.1818Z" fill="black"/>
<path d="M44.98 40.1818H42.5455V42.6164H44.98V40.1818Z" fill="black"/>
<path d="M49.7073 40.1818H47.2728V42.6164H49.7073V40.1818Z" fill="black"/>
<path d="M63.8891 40.1818H61.4546V42.6164H63.8891V40.1818Z" fill="black"/>
<path d="M66.2527 40.1818H63.8182V42.6164H66.2527V40.1818Z" fill="black"/>
<path d="M73.3437 40.1818H70.9091V42.6164H73.3437V40.1818Z" fill="black"/>
<path d="M21.3437 42.5454H18.9091V44.98H21.3437V42.5454Z" fill="black"/>
<path d="M26.071 42.5454H23.6364V44.98H26.071V42.5454Z" fill="black"/>
<path d="M30.7982 42.5454H28.3636V44.98H30.7982V42.5454Z" fill="black"/>
<path d="M40.2527 42.5454H37.8182V44.98H40.2527V42.5454Z" fill="black"/>
<path d="M47.3437 42.5454H44.9091V44.98H47.3437V42.5454Z" fill="black"/>
<path d="M49.7073 42.5454H47.2728V44.98H49.7073V42.5454Z" fill="black"/>
<path d="M61.5255 42.5454H59.0909V44.98H61.5255V42.5454Z" fill="black"/>
<path d="M66.2527 42.5454H63.8182V44.98H66.2527V42.5454Z" fill="black"/>
<path d="M68.6164 42.5454H66.1818V44.98H68.6164V42.5454Z" fill="black"/>
<path d="M73.3437 42.5454H70.9091V44.98H73.3437V42.5454Z" fill="black"/>
<path d="M7.16184 44.9091H4.72729V47.3436H7.16184V44.9091Z" fill="black"/>
<path d="M9.52549 44.9091H7.09094V47.3436H9.52549V44.9091Z" fill="black"/>
<path d="M14.2527 44.9091H11.8182V47.3436H14.2527V44.9091Z" fill="black"/>
<path d="M16.6164 44.9091H14.1818V47.3436H16.6164V44.9091Z" fill="black"/>
<path d="M18.98 44.9091H16.5455V47.3436H18.98V44.9091Z" fill="black"/>
<path d="M26.071 44.9091H23.6364V47.3436H26.071V44.9091Z" fill="black"/>
<path d="M30.7982 44.9091H28.3636V47.3436H30.7982V44.9091Z" fill="black"/>
<path d="M33.1618 44.9091H30.7273V47.3436H33.1618V44.9091Z" fill="black"/>
<path d="M40.2527 44.9091H37.8182V47.3436H40.2527V44.9091Z" fill="black"/>
<path d="M42.6164 44.9091H40.1818V47.3436H42.6164V44.9091Z" fill="black"/>
<path d="M47.3437 44.9091H44.9091V47.3436H47.3437V44.9091Z" fill="black"/>
<path d="M49.7073 44.9091H47.2728V47.3436H49.7073V44.9091Z" fill="black"/>
<path d="M54.4345 44.9091H52V47.3436H54.4345V44.9091Z" fill="black"/>
<path d="M56.7982 44.9091H54.3636V47.3436H56.7982V44.9091Z" fill="black"/>
<path d="M59.1618 44.9091H56.7273V47.3436H59.1618V44.9091Z" fill="black"/>
<path d="M61.5255 44.9091H59.0909V47.3436H61.5255V44.9091Z" fill="black"/>
<path d="M63.8891 44.9091H61.4546V47.3436H63.8891V44.9091Z" fill="black"/>
<path d="M66.2527 44.9091H63.8182V47.3436H66.2527V44.9091Z" fill="black"/>
<path d="M70.98 44.9091H68.5455V47.3436H70.98V44.9091Z" fill="black"/>
<path d="M73.3437 44.9091H70.9091V47.3436H73.3437V44.9091Z" fill="black"/>
<path d="M7.16184 47.2727H4.72729V49.7073H7.16184V47.2727Z" fill="black"/>
<path d="M14.2527 47.2727H11.8182V49.7073H14.2527V47.2727Z" fill="black"/>
<path d="M16.6164 47.2727H14.1818V49.7073H16.6164V47.2727Z" fill="black"/>
<path d="M18.98 47.2727H16.5455V49.7073H18.98V47.2727Z" fill="black"/>
<path d="M21.3437 47.2727H18.9091V49.7073H21.3437V47.2727Z" fill="black"/>
<path d="M30.7982 47.2727H28.3636V49.7073H30.7982V47.2727Z" fill="black"/>
<path d="M33.1618 47.2727H30.7273V49.7073H33.1618V47.2727Z" fill="black"/>
<path d="M47.3437 47.2727H44.9091V49.7073H47.3437V47.2727Z" fill="black"/>
<path d="M54.4345 47.2727H52V49.7073H54.4345V47.2727Z" fill="black"/>
<path d="M59.1618 47.2727H56.7273V49.7073H59.1618V47.2727Z" fill="black"/>
<path d="M61.5255 47.2727H59.0909V49.7073H61.5255V47.2727Z" fill="black"/>
<path d="M66.2527 47.2727H63.8182V49.7073H66.2527V47.2727Z" fill="black"/>
<path d="M7.16184 49.6364H4.72729V52.0709H7.16184V49.6364Z" fill="black"/>
<path d="M11.8891 49.6364H9.45459V52.0709H11.8891V49.6364Z" fill="black"/>
<path d="M16.6164 49.6364H14.1818V52.0709H16.6164V49.6364Z" fill="black"/>
<path d="M18.98 49.6364H16.5455V52.0709H18.98V49.6364Z" fill="black"/>
<path d="M23.7073 49.6364H21.2728V52.0709H23.7073V49.6364Z" fill="black"/>
<path d="M28.4345 49.6364H26V52.0709H28.4345V49.6364Z" fill="black"/>
<path d="M33.1618 49.6364H30.7273V52.0709H33.1618V49.6364Z" fill="black"/>
<path d="M35.5255 49.6364H33.0909V52.0709H35.5255V49.6364Z" fill="black"/>
<path d="M44.98 49.6364H42.5455V52.0709H44.98V49.6364Z" fill="black"/>
<path d="M47.3437 49.6364H44.9091V52.0709H47.3437V49.6364Z" fill="black"/>
<path d="M49.7073 49.6364H47.2728V52.0709H49.7073V49.6364Z" fill="black"/>
<path d="M52.071 49.6364H49.6364V52.0709H52.071V49.6364Z" fill="black"/>
<path d="M59.1618 49.6364H56.7273V52.0709H59.1618V49.6364Z" fill="black"/>
<path d="M61.5255 49.6364H59.0909V52.0709H61.5255V49.6364Z" fill="black"/>
<path d="M66.2527 49.6364H63.8182V52.0709H66.2527V49.6364Z" fill="black"/>
<path d="M73.3437 49.6364H70.9091V52.0709H73.3437V49.6364Z" fill="black"/>
<path d="M7.16184 52H4.72729V54.4345H7.16184V52Z" fill="black"/>
<path d="M11.8891 52H9.45459V54.4345H11.8891V52Z" fill="black"/>
<path d="M14.2527 52H11.8182V54.4345H14.2527V52Z" fill="black"/>
<path d="M16.6164 52H14.1818V54.4345H16.6164V52Z" fill="black"/>
<path d="M18.98 52H16.5455V54.4345H18.98V52Z" fill="black"/>
<path d="M21.3437 52H18.9091V54.4345H21.3437V52Z" fill="black"/>
<path d="M23.7073 52H21.2728V54.4345H23.7073V52Z" fill="black"/>
<path d="M30.7982 52H28.3636V54.4345H30.7982V52Z" fill="black"/>
<path d="M33.1618 52H30.7273V54.4345H33.1618V52Z" fill="black"/>
<path d="M35.5255 52H33.0909V54.4345H35.5255V52Z" fill="black"/>
<path d="M37.8891 52H35.4546V54.4345H37.8891V52Z" fill="black"/>
<path d="M47.3437 52H44.9091V54.4345H47.3437V52Z" fill="black"/>
<path d="M52.071 52H49.6364V54.4345H52.071V52Z" fill="black"/>
<path d="M54.4345 52H52V54.4345H54.4345V52Z" fill="black"/>
<path d="M56.7982 52H54.3636V54.4345H56.7982V52Z" fill="black"/>
<path d="M59.1618 52H56.7273V54.4345H59.1618V52Z" fill="black"/>
<path d="M61.5255 52H59.0909V54.4345H61.5255V52Z" fill="black"/>
<path d="M63.8891 52H61.4546V54.4345H63.8891V52Z" fill="black"/>
<path d="M66.2527 52H63.8182V54.4345H66.2527V52Z" fill="black"/>
<path d="M68.6164 52H66.1818V54.4345H68.6164V52Z" fill="black"/>
<path d="M26.071 54.3636H23.6364V56.7982H26.071V54.3636Z" fill="black"/>
<path d="M28.4345 54.3636H26V56.7982H28.4345V54.3636Z" fill="black"/>
<path d="M33.1618 54.3636H30.7273V56.7982H33.1618V54.3636Z" fill="black"/>
<path d="M37.8891 54.3636H35.4546V56.7982H37.8891V54.3636Z" fill="black"/>
<path d="M49.7073 54.3636H47.2728V56.7982H49.7073V54.3636Z" fill="black"/>
<path d="M52.071 54.3636H49.6364V56.7982H52.071V54.3636Z" fill="black"/>
<path d="M54.4345 54.3636H52V56.7982H54.4345V54.3636Z" fill="black"/>
<path d="M63.8891 54.3636H61.4546V56.7982H63.8891V54.3636Z" fill="black"/>
<path d="M66.2527 54.3636H63.8182V56.7982H66.2527V54.3636Z" fill="black"/>
<path d="M70.98 54.3636H68.5455V56.7982H70.98V54.3636Z" fill="black"/>
<path d="M73.3437 54.3636H70.9091V56.7982H73.3437V54.3636Z" fill="black"/>
<path d="M28.4345 56.7273H26V59.1618H28.4345V56.7273Z" fill="black"/>
<path d="M30.7982 56.7273H28.3636V59.1618H30.7982V56.7273Z" fill="black"/>
<path d="M35.5255 56.7273H33.0909V59.1618H35.5255V56.7273Z" fill="black"/>
<path d="M37.8891 56.7273H35.4546V59.1618H37.8891V56.7273Z" fill="black"/>
<path d="M42.6164 56.7273H40.1818V59.1618H42.6164V56.7273Z" fill="black"/>
<path d="M52.071 56.7273H49.6364V59.1618H52.071V56.7273Z" fill="black"/>
<path d="M54.4345 56.7273H52V59.1618H54.4345V56.7273Z" fill="black"/>
<path d="M59.1618 56.7273H56.7273V59.1618H59.1618V56.7273Z" fill="black"/>
<path d="M63.8891 56.7273H61.4546V59.1618H63.8891V56.7273Z" fill="black"/>
<path d="M33.1618 59.0909H30.7273V61.5255H33.1618V59.0909Z" fill="black"/>
<path d="M37.8891 59.0909H35.4546V61.5255H37.8891V59.0909Z" fill="black"/>
<path d="M40.2527 59.0909H37.8182V61.5255H40.2527V59.0909Z" fill="black"/>
<path d="M44.98 59.0909H42.5455V61.5255H44.98V59.0909Z" fill="black"/>
<path d="M47.3437 59.0909H44.9091V61.5255H47.3437V59.0909Z" fill="black"/>
<path d="M49.7073 59.0909H47.2728V61.5255H49.7073V59.0909Z" fill="black"/>
<path d="M52.071 59.0909H49.6364V61.5255H52.071V59.0909Z" fill="black"/>
<path d="M54.4345 59.0909H52V61.5255H54.4345V59.0909Z" fill="black"/>
<path d="M63.8891 59.0909H61.4546V61.5255H63.8891V59.0909Z" fill="black"/>
<path d="M66.2527 59.0909H63.8182V61.5255H66.2527V59.0909Z" fill="black"/>
<path d="M73.3437 59.0909H70.9091V61.5255H73.3437V59.0909Z" fill="black"/>
<path d="M26.071 61.4545H23.6364V63.8891H26.071V61.4545Z" fill="black"/>
<path d="M35.5255 61.4545H33.0909V63.8891H35.5255V61.4545Z" fill="black"/>
<path d="M37.8891 61.4545H35.4546V63.8891H37.8891V61.4545Z" fill="black"/>
<path d="M44.98 61.4545H42.5455V63.8891H44.98V61.4545Z" fill="black"/>
<path d="M54.4345 61.4545H52V63.8891H54.4345V61.4545Z" fill="black"/>
<path d="M56.7982 61.4545H54.3636V63.8891H56.7982V61.4545Z" fill="black"/>
<path d="M59.1618 61.4545H56.7273V63.8891H59.1618V61.4545Z" fill="black"/>
<path d="M61.5255 61.4545H59.0909V63.8891H61.5255V61.4545Z" fill="black"/>
<path d="M63.8891 61.4545H61.4546V63.8891H63.8891V61.4545Z" fill="black"/>
<path d="M66.2527 61.4545H63.8182V63.8891H66.2527V61.4545Z" fill="black"/>
<path d="M68.6164 61.4545H66.1818V63.8891H68.6164V61.4545Z" fill="black"/>
<path d="M70.98 61.4545H68.5455V63.8891H70.98V61.4545Z" fill="black"/>
<path d="M26.071 63.8182H23.6364V66.2527H26.071V63.8182Z" fill="black"/>
<path d="M30.7982 63.8182H28.3636V66.2527H30.7982V63.8182Z" fill="black"/>
<path d="M33.1618 63.8182H30.7273V66.2527H33.1618V63.8182Z" fill="black"/>
<path d="M44.98 63.8182H42.5455V66.2527H44.98V63.8182Z" fill="black"/>
<path d="M52.071 63.8182H49.6364V66.2527H52.071V63.8182Z" fill="black"/>
<path d="M54.4345 63.8182H52V66.2527H54.4345V63.8182Z" fill="black"/>
<path d="M56.7982 63.8182H54.3636V66.2527H56.7982V63.8182Z" fill="black"/>
<path d="M61.5255 63.8182H59.0909V66.2527H61.5255V63.8182Z" fill="black"/>
<path d="M26.071 66.1818H23.6364V68.6164H26.071V66.1818Z" fill="black"/>
<path d="M28.4345 66.1818H26V68.6164H28.4345V66.1818Z" fill="black"/>
<path d="M30.7982 66.1818H28.3636V68.6164H30.7982V66.1818Z" fill="black"/>
<path d="M33.1618 66.1818H30.7273V68.6164H33.1618V66.1818Z" fill="black"/>
<path d="M37.8891 66.1818H35.4546V68.6164H37.8891V66.1818Z" fill="black"/>
<path d="M42.6164 66.1818H40.1818V68.6164H42.6164V66.1818Z" fill="black"/>
<path d="M44.98 66.1818H42.5455V68.6164H44.98V66.1818Z" fill="black"/>
<path d="M49.7073 66.1818H47.2728V68.6164H49.7073V66.1818Z" fill="black"/>
<path d="M52.071 66.1818H49.6364V68.6164H52.071V66.1818Z" fill="black"/>
<path d="M54.4345 66.1818H52V68.6164H54.4345V66.1818Z" fill="black"/>
<path d="M56.7982 66.1818H54.3636V68.6164H56.7982V66.1818Z" fill="black"/>
<path d="M59.1618 66.1818H56.7273V68.6164H59.1618V66.1818Z" fill="black"/>
<path d="M61.5255 66.1818H59.0909V68.6164H61.5255V66.1818Z" fill="black"/>
<path d="M63.8891 66.1818H61.4546V68.6164H63.8891V66.1818Z" fill="black"/>
<path d="M66.2527 66.1818H63.8182V68.6164H66.2527V66.1818Z" fill="black"/>
<path d="M68.6164 66.1818H66.1818V68.6164H68.6164V66.1818Z" fill="black"/>
<path d="M70.98 66.1818H68.5455V68.6164H70.98V66.1818Z" fill="black"/>
<path d="M30.7982 68.5454H28.3636V70.98H30.7982V68.5454Z" fill="black"/>
<path d="M40.2527 68.5454H37.8182V70.98H40.2527V68.5454Z" fill="black"/>
<path d="M44.98 68.5454H42.5455V70.98H44.98V68.5454Z" fill="black"/>
<path d="M47.3437 68.5454H44.9091V70.98H47.3437V68.5454Z" fill="black"/>
<path d="M49.7073 68.5454H47.2728V70.98H49.7073V68.5454Z" fill="black"/>
<path d="M54.4345 68.5454H52V70.98H54.4345V68.5454Z" fill="black"/>
<path d="M59.1618 68.5454H56.7273V70.98H59.1618V68.5454Z" fill="black"/>
<path d="M63.8891 68.5454H61.4546V70.98H63.8891V68.5454Z" fill="black"/>
<path d="M70.98 68.5454H68.5455V70.98H70.98V68.5454Z" fill="black"/>
<path d="M28.4345 70.9091H26V73.3436H28.4345V70.9091Z" fill="black"/>
<path d="M30.7982 70.9091H28.3636V73.3436H30.7982V70.9091Z" fill="black"/>
<path d="M37.8891 70.9091H35.4546V73.3436H37.8891V70.9091Z" fill="black"/>
<path d="M40.2527 70.9091H37.8182V73.3436H40.2527V70.9091Z" fill="black"/>
<path d="M49.7073 70.9091H47.2728V73.3436H49.7073V70.9091Z" fill="black"/>
<path d="M52.071 70.9091H49.6364V73.3436H52.071V70.9091Z" fill="black"/>
<path d="M56.7982 70.9091H54.3636V73.3436H56.7982V70.9091Z" fill="black"/>
<path d="M59.1618 70.9091H56.7273V73.3436H59.1618V70.9091Z" fill="black"/>
<path d="M63.8891 70.9091H61.4546V73.3436H63.8891V70.9091Z" fill="black"/>
<path d="M68.6164 70.9091H66.1818V73.3436H68.6164V70.9091Z" fill="black"/>
<path d="M4.72729 4.72726V21.2727H21.2727V4.72726H4.72729ZM18.9091 18.9091H7.09093V7.0909H18.9091V18.9091Z" fill="black"/>
<path d="M56.7273 4.72726V21.2727H73.2727V4.72726H56.7273ZM70.9091 18.9091H59.0909V7.0909H70.9091V18.9091Z" fill="black"/>
<path d="M4.72729 56.7273V73.2727H21.2727V56.7273H4.72729ZM18.9091 70.9091H7.09093V59.0909H18.9091V70.9091Z" fill="black"/>
<path d="M16.5455 9.45453H9.45459V16.5454H16.5455V9.45453Z" fill="black"/>
<path d="M68.5455 9.45453H61.4546V16.5454H68.5455V9.45453Z" fill="black"/>
<path d="M16.5455 61.4545H9.45459V68.5454H16.5455V61.4545Z" fill="black"/>
</g>
<defs>
<clipPath id="clip0_58_2">
<rect width="78" height="78" rx="4" fill="white"/>
</clipPath>
</defs>
</svg>
