<svg width="476" height="100" viewBox="0 0 476 100" fill="none" xmlns="http://www.w3.org/2000/svg">
<path d="M36.8309 99.2013C37.1254 99.0745 38.3101 99.383 38.8228 99.3295C38.2415 100.671 35.7685 99.6619 36.8309 99.2013ZM89.4346 1.79163C89.0091 2.12327 88.5836 2.4549 88.1581 2.78654C89.3673 3.00203 90.9927 2.75861 92.1147 3.07342C92.2982 3.12628 91.8222 4.08649 92.2564 4.12936C92.6908 4.17197 92.607 2.85976 93.2387 2.7194C93.9474 2.56595 97.192 3.48013 98.3157 3.45795C102.518 3.36937 106.757 2.61999 110.968 3.16497C106.621 4.13579 111.002 5.12385 112.219 4.70312C112.489 4.60571 112.446 2.16619 116.808 2.78043C119.58 3.17023 117.02 6.65784 121.645 4.91064C118.088 2.47081 121.586 2.64181 124.374 2.5607C124.855 2.54633 128.737 2.9129 130.452 2.80485C131.039 2.76727 131.932 1.48946 132.711 1.45592C133.246 1.4338 133.651 2.13239 134.447 2.09682C138.154 1.93935 141.8 1.88503 145.514 2.12123C143.343 5.40492 147.217 3.5207 147.391 3.67769C148.276 4.56924 144.274 4.82301 145.857 5.38063C148.069 5.2789 150.28 5.17718 152.492 5.07545C150.677 4.67227 154.895 2.31026 155.671 3.3847C155.33 0.483116 165.751 5.91014 167.338 4.94116C167.668 4.73649 165.505 3.30242 170.523 3.95846C171.066 4.03136 170.861 4.9068 171.146 4.8252C171.316 4.77612 172.349 1.99363 173.45 3.5312C173.852 4.09238 171.281 5.91987 176.927 5.18531C174.678 2.35329 184.757 3.6516 186.611 4.36131C186.24 3.98084 185.87 3.60037 185.5 3.21991C187.333 4.24627 187.663 3.2834 188.076 3.33588C189.74 3.54665 192.028 4.51701 193.578 4.42845C195.392 4.32657 195.398 2.56532 197.513 3.25043C197.011 2.86182 196.509 2.47321 196.008 2.08461C197.468 2.1782 198.929 2.27179 200.389 2.36538C197.007 4.69678 201.119 2.47661 201.39 2.42642C201.822 2.34157 201.201 3.29604 201.923 3.17718C201.998 3.15762 201.89 2.2588 203.004 2.15785C205.331 1.95001 204.963 3.08009 205.94 3.06731C206.03 3.06149 205.716 2.25175 207.404 2.0602C212.767 1.45036 207.377 2.68072 207.171 2.79264C206.901 2.94026 208.74 6.32415 204.184 5.12428C205.714 5.50626 205.868 7.00368 206.04 7.04086C206.192 7.07141 208.843 6.86049 208.989 6.80891C210.292 6.30042 209.145 5.27713 209.399 5.09376C209.607 4.94593 212.8 6.27946 213.548 3.20159C215.076 6.04057 212.669 5.78047 210.107 6.21684C209.734 6.79942 212.547 7.36591 212.695 7.36435C216.324 7.35917 214.315 5.02394 215.108 3.5312C215.525 2.75016 217.003 4.34333 215.638 2.24941C218.932 2.02838 216.934 3.24176 217.147 3.42133C217.468 3.68516 218.621 3.08503 218.765 3.16497C218.977 3.28332 218.241 4.00829 219.076 4.26365C219.214 4.30078 220.56 3.05324 218.825 2.45694C221.142 2.63429 220.952 1.5705 221.738 3.71431C223.334 -0.341507 222.896 6.11167 223.524 6.33892C225.196 6.93797 224.711 3.75362 224.799 3.59834C225.407 2.60325 230.034 3.69714 231.18 3.23822C230.728 5.53177 227.512 3.26326 226.793 3.70821C224.395 5.18853 230.172 4.8549 228.431 7.73668C229.16 6.94523 229.89 6.15377 230.62 5.36232C231.959 7.21519 230.06 8.02313 233.662 7.34604C234.251 5.74677 231.115 7.59864 231.744 6.33892C232.115 5.59959 234.204 5.44081 234.245 5.05103C234.286 4.58184 232.398 5.13789 232.696 4.41624C233.345 2.85892 240.23 4.34148 234.989 5.19141C236.451 5.1648 237.204 8.26235 238.472 7.29721C239.292 6.67075 234.68 2.39268 241.599 3.17718C241.746 4.63986 238.832 3.6091 238.757 3.72041C238.651 3.88245 239.178 7.18312 239.269 7.34604C239.592 7.88242 246.657 6.11499 248.15 7.7733C247.559 5.86564 253.489 7.4329 254.135 6.85164C254.307 6.69116 253.664 5.52263 253.848 5.39894C254.995 4.66281 258.096 6.74876 259.535 6.8028C261.145 6.86404 260.941 5.85481 261.031 5.85673C261.74 5.91302 261.174 6.59721 261.607 6.59528C262.261 6.592 266.758 6.73193 266.984 6.58917C267.05 6.54469 266.316 5.3918 267.296 5.1731C267.466 5.13522 267.358 6.50209 270.261 5.91166C273.757 5.20153 267.833 4.21186 269.286 2.78043C271.532 4.81856 271.459 2.79886 272.068 2.95744C272.279 3.01521 273.848 4.7324 275.552 4.62377C274.329 4.9025 273.106 5.18124 271.883 5.45998C273.085 5.76108 275.42 5.38839 276.411 5.72855C276.895 5.89413 276.496 7.3048 277.546 7.26669C277.769 7.25092 278.653 3.81409 275.903 5.35622C275.683 4.12903 276.992 4.92817 277.599 4.58104C277.691 4.52695 278.053 2.4768 278.828 3.75093C279.014 4.06441 276.987 10.0449 282.215 5.71634C282.383 5.57684 281.798 4.82786 281.962 4.6726C282.075 4.56745 283.409 4.87041 283.556 4.76415C283.707 4.65014 283.063 3.83247 283.242 3.67159C284.163 2.84252 285.371 6.08551 283.473 5.83842C284.107 6.23923 284.742 6.64004 285.376 7.04086C284.697 4.59672 286.372 6.35316 287.25 6.27789C292.875 5.79682 289.108 4.20718 290.075 3.3847C291.631 2.06414 290.443 6.24679 292.752 4.98999C292.965 4.87249 290.174 3.09702 295.624 4.09885C294.82 4.16802 294.015 4.2372 293.211 4.30637C293.675 6.67039 296.116 4.14421 296.303 4.11105C298.443 3.78645 296.997 4.63869 300.175 3.42133C300.459 3.31203 301.077 3.89546 301.684 3.60444C304.199 2.40548 298.364 2.87689 298.204 1.91981C298.129 1.45084 304.404 1.56895 304.62 1.79163C305.534 2.77872 301.775 2.22639 302.492 3.45185C302.753 3.88697 311.697 2.99329 313.492 3.47016C315.562 4.02508 316.495 7.23026 316.508 3.62886C317.092 7.16395 317.608 4.75201 317.873 4.77636C321.075 5.10361 321.081 5.13928 323.827 4.80077C324.434 4.7272 324.946 5.7998 325.16 5.61868C325.285 5.50929 325.051 4.36144 325.663 4.00729C326.512 3.52279 331.617 4.70339 331.997 5.33791C332.376 5.97243 329.841 5.61308 330.295 6.65632C332.13 6.76177 333.89 6.50365 335.737 6.61359C336.504 6.66238 336.11 7.39256 336.442 7.40707C336.583 7.41605 339.232 6.77306 339.12 6.50372C338.857 5.87743 330.676 6.29842 332.83 5.02052C333.246 4.77359 334.714 6.45621 334.481 4.41013C341.79 4.87402 349.099 5.33791 356.408 5.80179C352.209 7.33215 347.483 5.96349 343.084 6.10698C342.481 6.12469 340.443 5.92735 340.691 6.9615C344.431 7.22923 349.081 6.69041 352.673 7.36435C352.788 7.38665 352.366 8.31579 352.797 8.46303C353.601 8.73784 356.222 7.23931 356.662 7.62681C356.738 7.71709 355.247 8.94197 355.7 9.7204C356.864 11.718 357.159 7.29362 358.16 7.34604C358.934 7.38846 364.135 9.52773 365.431 8.17615C366.808 6.73553 361.598 7.33979 361.983 6.16191C365.508 4.97821 369.078 6.24223 372.409 6.09477C372.468 6.09101 371.958 5.16797 372.701 5.03883C373.995 4.81407 374.334 6.12336 374.964 6.33282C375.643 6.55579 378.044 6.36816 378.365 6.84554C378.406 6.90813 377.919 8.20678 377.845 8.24329C376.8 8.77853 376.428 7.093 376.333 7.07137C375.975 7.00746 375.624 7.65305 375.298 7.6146C374.761 7.55048 374.465 6.95319 373.756 6.90047C373.267 6.86187 373.739 8.00887 373.268 7.95641C373.095 7.93252 371.228 5.31344 371.054 7.98693C371 8.82988 386.263 9.91237 387.789 9.2382C386.48 8.91674 385.172 8.59528 383.863 8.27381C386.521 9.05632 389.713 6.92017 389.939 10.0805C399.793 10.3389 409.647 10.5973 419.502 10.8557C421.261 11.1249 420.296 13.1558 423.191 12.5647C422.443 11.9177 421.695 11.2708 420.947 10.6237C422.431 11.0776 429.006 11.9644 430.07 11.5454C430.207 11.4905 430.399 9.65247 432.042 9.49456C433.5 9.35512 433.734 10.7323 434.513 10.9961C435.167 11.2137 435.902 10.8529 436.096 10.9289C436.245 10.9898 436.304 11.8319 436.663 11.9788C437.795 12.4328 436.877 10.0617 438.001 12.7845C437.728 12.8882 437.454 12.992 437.18 13.0958C438.546 13.4899 440.413 14.726 438.401 15.3358C438.055 15.4411 438.352 14.6264 438.094 14.6278C427.989 14.7792 436.058 16.363 439.599 15.0978C440.508 16.305 445.605 15.5679 445.775 15.8058C446.01 16.1504 445.138 17.1152 446.281 17.9482C446.522 18.1246 453.336 17.4486 450.882 19.053C450.376 19.384 447.109 19.0363 446.321 19.0835C448.174 21.6422 452.519 17.9764 453.007 18.0703C454.977 18.4691 449.221 20.2878 453.661 20.5851C457.074 20.8132 453.869 19.1048 455.182 18.3755C455.92 17.9663 459.783 19.8484 459.678 17.4111C461.004 17.1508 460.228 18.4414 460.392 18.5342C460.552 18.6158 463.159 17.8862 464.005 18.3999C464.108 18.4638 463.785 19.7307 463.891 19.8343C464.097 20.0118 466.612 19.7585 466.713 19.6512C466.777 19.5766 466.177 18.4675 466.424 18.1985C466.711 17.8883 469.13 18.1493 469.264 17.8323C469.452 17.3529 466.465 17.6687 466.963 16.4284C468.34 16.7407 470.583 15.9132 471.492 14.9147C471.269 15.2002 469.934 15.2412 469.471 15.1405C469.689 13.324 472.555 13.3488 471.575 14.7865C472.198 14.0144 471.773 13.6047 472.124 12.876C472.216 12.6915 473.101 12.6534 473.271 12.3389C473.293 12.2762 472.38 11.5909 472.563 11.2219C472.894 10.5552 475.577 10.7052 475.797 10.8801C476.415 11.3758 474.227 11.9755 474.045 12.7418C474.019 12.8594 475.88 14.3609 475.908 14.4935C476.017 15.9163 473.946 14.891 474.183 16.1721C474.695 16.4427 475.207 16.7133 475.719 16.9839C473.744 18.2812 470.09 17.6141 469.148 19.0897C472.076 18.6505 475.141 18.7025 475.134 22.0256C475.132 23.4251 473.869 24.2455 473.918 24.6013C474.104 25.8746 475.858 24.4914 475.922 24.5586C475.976 24.6362 476 24.7118 476 24.7853C476 24.7853 476 24.7853 476 24.7854C476 25.5309 473.5 26.0677 473.375 26.408C473.164 27.0127 474.277 29.5015 474.275 30.052C474.237 30.1626 472.456 30.7515 473.057 31.7122C473.665 32.6825 475.223 32.7039 475.278 32.8048C475.575 33.3852 472.85 33.9147 472.768 34.2575C472.725 34.4308 474.189 35.4956 474.232 35.8017C474.268 36.1089 473.156 36.7792 472.717 37.7488C472.391 38.4692 473.342 39.0214 473.175 39.1344C473.055 39.2092 470.48 39.1969 470.353 39.3236C470.165 39.5109 470.768 40.3718 470.68 40.587C470.556 40.8967 469.724 40.5859 469.832 40.9044C469.913 41.1418 473.138 44.1096 473.117 44.9024C473.08 46.2545 469.666 43.1435 472.843 48.4792C472.865 48.5142 473.638 48.135 473.66 48.1679C474.137 49.1496 471.658 50.6597 474.689 50.3958C469.05 52.1008 473.988 52.4283 473.153 54.705C472.831 55.5801 470.645 55.9409 470.635 56.0723C470.847 57.1824 471.544 56.3214 471.78 56.8657C471.911 57.1699 469.955 58.3437 470.395 59.1058C470.623 59.4986 472.699 59.3588 472.785 59.4354C473.606 60.158 472.599 60.9364 472.779 61.4497C472.899 61.7938 474.152 61.821 474.185 61.883C474.237 62.0119 472.536 63.4024 472.182 63.8912C471.912 64.2672 472.924 64.8564 472.736 65.0203C471.603 66.0007 469.193 63.5003 471.515 67.0041C471.657 67.2189 472.535 67.1321 472.561 67.175C473.104 68.1682 471.487 68.254 471.198 69.0671C470.701 70.4682 473.025 69.6871 471.092 70.6724C472.542 71.5887 473.35 71.5504 475.047 71.295C470.349 72.0075 468.691 75.6345 473.907 75.5432C472.247 75.4867 472.432 77.5337 471.937 77.5697C471.629 77.5896 469.223 75.5544 470.326 80.121C470.464 80.6915 471.926 79.9667 471.468 81.1342C467.961 80.8363 471.394 81.8771 471.397 82.0315C471.352 84.7215 462.781 82.5182 461.309 82.825C459.6 83.1807 458.081 85.3004 457.71 85.3031C456.488 85.304 457.502 84.2278 457.229 83.8321C456.952 83.44 453.476 85.5018 453.303 85.3886C452.63 84.9337 453.313 83.6584 453.243 83.594C452.409 82.8126 447.742 83.8112 446.436 83.5147C446.476 84.342 449.099 84.4077 447.461 85.7365C445.554 87.2857 445.445 83.6386 445.395 83.4781C436.656 83.5127 427.917 83.5473 419.179 83.5818C419.288 85.5222 425.001 84.0589 425.131 84.3143C425.894 85.8268 416.243 85.799 415.059 85.1139C415.958 85.533 416.857 85.9521 417.757 86.3713C416.221 88.602 412.822 85.7038 410.601 86.6886C409.883 87.0079 411.261 87.8689 411.233 87.9277C410.426 88.7941 409.132 88.1266 410.1 86.9633C408.131 88.0779 408.418 86.8481 406.907 86.7558C406.829 86.7519 407.478 87.6521 406.283 88.0254C405.723 88.1995 402.735 88.2024 402.335 88.9898C402.171 89.3213 403.686 92.8122 403.873 89.8077C407.122 91.2723 404.911 88.4385 406.174 88.5076C406.367 88.5233 405.922 90.2004 409.101 89.4109C408.495 92.4352 404.835 90.1738 404.207 90.5401C402.913 91.2931 408.246 92.8548 409.224 90.4974C408.767 92.8574 409.603 90.8154 410.791 90.9124C412.092 91.0177 411.525 91.7204 412.229 91.7242C414.155 91.7418 413.357 90.0759 414.944 91.5778C413.397 86.9284 417.661 90.9643 418.904 92.182C416.882 92.418 414.86 92.654 412.838 92.8901C412.953 93.1342 413.069 93.3784 413.185 93.6225C412.652 93.5879 412.119 93.5533 411.587 93.5187C411.672 93.2848 411.757 93.0508 411.843 92.8168C409.096 94.3381 408.426 92.6283 408.202 92.6093C405.319 92.4109 401.989 92.4257 399.074 92.4201C398.637 92.4192 398.937 93.941 395.749 92.7497C394.733 92.3703 395.693 91.1865 394.54 91.3641C393.098 94.5809 393.126 92.0152 392.697 92.0111C391.467 92.0115 390.715 92.8084 390.602 92.8168C389.082 92.9412 386.856 92.8081 385.187 92.9267C385.155 92.9388 386.024 93.9271 384.94 93.6347C384.559 93.5303 381.143 89.3114 378.158 90.6866C378.934 90.9714 379.711 91.2563 380.487 91.5411C379.574 91.1431 373.176 92.2063 374.74 93.3356C375.699 94.0259 378.041 91.3065 378.298 93.9216C376.168 93.1389 364.409 94.3095 363.493 93.7019C363.367 93.6151 364.146 92.7666 363.971 92.6581C363.836 92.5754 361.142 92.7765 360.784 92.4506C360.571 92.257 361.762 91.7369 361.665 91.4313C361.58 91.2133 358.216 90.85 358.024 91.9135C358.85 91.4866 361.172 91.8593 359.954 92.7558C359.798 92.8671 358.986 92.1812 358.796 92.3224C357.03 93.6255 362.306 93.3127 363.123 93.3234C359.809 94.6783 354.683 93.0811 350.843 93.9643C349.291 93.0791 353.143 92.6102 351.387 91.8768C347.745 90.3567 350.418 93.1009 350.305 93.2136C349.401 94.1066 346.319 89.3205 346.318 92.9633C344.997 92.4149 345.425 91.9557 343.561 92.4323C343.806 92.6846 344.052 92.9369 344.297 93.1891C342.228 95.2992 337.849 89.9757 338.178 89.5696C339.06 88.4828 341.34 90.1781 341.535 90.1373C341.823 90.0769 342.62 86.3805 345.775 89.6856C347.067 87.2064 340.775 88.0123 343.638 86.3224C341.704 86.5997 333.75 84.8741 332.605 85.9623C332.468 86.1044 333.105 88.5746 331.139 87.3173C330.207 86.7186 332.456 86.6899 332.029 86.1271C330.716 84.4 312.851 85.5048 309.457 85.5961C309.237 85.5988 309.318 84.8322 309.101 84.8392C308.436 84.8606 306.013 86.0039 304.823 85.651C307.289 87.0701 302.5 87.1805 301.282 87.0244C299.434 86.7866 299.548 85.4374 298.749 85.1505C295.671 84.0446 290.901 87.2478 288.51 84.2533C288.641 87.2253 284.374 82.7961 282.432 82.77C280.912 82.7487 278.706 84.7155 280.758 85.9135C278.134 85.7766 275.371 86.3311 272.909 86.5116C272.502 86.5419 273.062 85.6631 272.367 85.7426C272.304 85.7561 272.217 86.6174 271.621 86.707C266.699 87.4577 269.094 85.6275 268.173 85.0895C267.658 84.7882 267.277 84.6384 266.998 84.589C269.867 84.4206 273.177 84.0824 274.062 84.0579C273.307 82.1561 267.702 84.4232 266.061 83.9114C266.004 83.8928 266.203 82.8446 266.145 82.8372C266.143 82.8372 266.142 82.8372 266.141 82.8372C265.526 82.7569 261.609 83.1437 262.415 84.3936C262.632 84.7276 264.435 84.7269 266.573 84.6134C265.994 84.8478 266.427 86.0221 266.324 86.0722C265.086 86.6526 262.051 85.5065 260.975 85.3519C260.729 85.318 260.747 86.0704 260.706 86.0722C259.727 85.9013 260.129 83.7531 259.125 85.9684C257.352 83.2912 262.447 85.5709 262.088 83.8321C261.812 82.4934 250.495 83.2124 250.529 85.3214C250.49 85.0958 250.334 84.8159 250.015 84.4974C249.307 83.7897 246.157 84.0111 245.613 84.3997C245.522 84.4762 245.558 86.5233 245.445 86.5422C245.16 86.5892 241.31 84.9843 239.872 86.1942C240.648 86.4811 241.425 86.768 242.202 87.0549C237.512 87.0726 238.237 87.6819 239.799 88.2939C239.877 88.2995 239.953 88.3772 240.028 88.3855C241.239 88.8381 242.792 89.2739 242.815 89.4353C242.904 90.0515 234.948 90.3944 236.478 88.4954C236.691 88.2358 240.373 89.0814 238.55 87.7263C238.231 87.4889 235.867 87.8757 235.743 87.7263C234.912 86.7333 240.074 85.414 239.443 84.003C238.19 85.3464 236.582 84.6389 235.145 84.9857C234.491 85.1425 234.331 86.1688 234.25 86.1881C233.045 86.4561 233.721 85.38 233.319 85.4069C233.103 85.4254 230.727 87.7156 231.176 84.5584C223.348 86.8809 229.011 86.8786 233.813 86.7009C232.295 87.8507 229.32 87.2946 227.986 87.5615C227.507 87.6584 227.791 88.7119 226.982 88.9226C225.316 89.356 217.366 88.1459 215.295 87.8606C216.567 87.4883 216.195 86.3408 215.213 86.4201C214.231 86.4999 215.056 88.0316 214.865 88.1963C214.659 88.3668 210.053 87.6438 209.287 87.8423C212.755 87.2875 211.972 86.1431 209.029 86.0233C209.454 85.6937 209.88 85.3641 210.305 85.0345C208.58 85.4977 204.953 83.752 203.955 84.2716C203.799 84.3551 204.361 85.3172 204.273 85.3641C203.398 85.773 200.422 84.7917 200.284 85.12C200.166 85.3933 201.436 86.2 200.965 86.5971C200.866 86.6807 199.643 85.3801 198.437 85.6998C197.99 85.8175 198.259 86.7274 198.147 86.7802C197.208 87.2179 197.762 85.6855 196.046 85.9318C194.789 86.114 193.852 87.6121 192.115 87.1159C197.819 89.0256 193.024 88.228 190.638 88.8066C190.256 88.899 190.584 90.5509 188.3 89.7466C193.161 86.7596 186.914 88.1678 185.636 88.1352C185.566 88.1251 185.542 87.0357 184.915 87.0183C184.862 87.0192 184.938 87.7554 184.356 87.8117C178.831 88.344 182.364 87.5123 181.314 86.7863C180.867 86.477 178.181 87.518 177.457 87.5432C177.291 87.5458 177.367 86.7808 176.724 86.8107C175.585 86.8657 174.565 87.68 173.813 87.7446C173.725 87.7484 173.722 86.5413 172.297 86.9328C171.896 87.0422 171.446 87.4708 172.015 87.8178C173.902 88.9592 177.482 86.9838 179.615 88.123C181.559 89.1605 175.427 89.2584 175.108 89.2644C174.991 89.2682 176.188 88.6689 174.972 88.5503C173.932 88.4516 172.033 90.5363 170.485 90.0823C170.367 90.0487 169.129 88.281 169.186 88.178C169.238 88.1027 171.138 87.719 170.862 87.2075C170.829 87.1492 169.622 87.161 169.464 86.7802C169.271 86.3166 168.751 81.7671 168.493 81.6531C167.831 81.3712 168.262 82.4088 167.834 82.3367C166.916 82.1845 163.732 80.8391 163.628 82.416C164.154 82.5096 164.68 82.6032 165.206 82.6968C162.28 82.859 163.527 83.5302 163.113 83.826C162.666 84.1459 162.792 82.7599 161.805 82.6297C161.591 82.601 157.463 82.8904 157.538 83.472C159.821 82.5463 158.974 84.2593 159.08 84.2899C159.48 84.4015 159.99 83.4406 160.527 83.4598C164.301 83.6101 160.495 85.1267 161.386 85.5167C161.692 85.648 162.303 84.8278 162.433 84.8697C162.856 85.0056 162.863 86.0797 163.145 85.9928C163.803 85.7912 163.035 84.2713 163.087 84.1922C163.675 83.2411 165.98 84.4245 164.545 86.0783C165.406 86.6743 165.507 84.6644 166.19 85.4679C167.548 87.059 165.514 86.6503 164.963 86.9145C162.986 87.8675 162.399 87.0961 159.601 87.3601C158.593 87.4532 157.399 88.4296 156.932 88.4832C156.637 88.5169 153.856 85.1199 153.774 90.4363C152.693 89.9219 150.996 86.4186 149.883 86.5788C148.883 86.7249 149.201 88.6057 149.107 88.6785C148.964 88.7928 147.755 88.6446 147.346 88.9104C146.867 89.2244 147.106 89.9423 146.345 90.2349C144.453 90.9611 144.503 89.0413 144.308 88.9165C142.05 87.4744 143.039 90.2051 142.538 90.4241C142.072 90.6254 135.535 89.5744 134.16 90.2654C134.72 89.8809 135.279 89.4964 135.839 89.1118C134.837 87.9144 133.775 89.8675 133.757 87.7202C133.553 91.187 131.485 88.8697 130.864 88.9592C130.619 88.9961 130.638 89.5869 130.332 89.6123C129.135 89.7159 126.436 89.2457 125.787 89.5452C122.979 90.8349 130.159 92.9802 130.724 93.1098C129.593 93.0715 123.191 93.848 126.134 95.5147C126.589 95.7718 127.395 94.2204 127.65 94.1596C129.379 93.7602 128.019 95.1505 128.155 95.2827C128.385 95.4962 129.523 94.1521 129.823 94.3122C129.924 94.3635 129.279 95.6225 130.927 95.6489C130.116 96.8694 125.482 95.8751 124.874 96.1617C124.657 96.264 126.015 98.8719 122.048 96.3387C122.094 96.5808 122.14 96.8229 122.186 97.065C119.978 97.1647 117.769 97.2644 115.56 97.3641C115.8 96.8063 117.04 95.6859 115.479 95.9236C114.579 96.0612 115.245 97.3036 115.163 97.3397C114.356 97.6817 100.074 97.2682 97.3061 97.4068C96.3647 97.4518 93.7403 98.4503 93.5402 98.4689C92.3436 98.5688 88.1064 97.9189 87.2611 98.0599C86.7333 98.1504 87.2351 99.189 86.7636 99.1403C86.3253 99.0936 86.7793 98.0897 86.6492 98.0477C85.5709 97.684 77.3798 99.0006 75.4348 98.0538C76.6236 98.3381 82.5558 96.3324 82.4365 95.6245C82.4107 95.5275 80.969 94.7638 80.6716 95.1362C80.1802 94.2671 78.4932 96.9134 77.5756 96.3936C77.4719 96.3346 77.8805 94.8502 76.2428 94.5808C75.6787 94.4887 74.2015 95.6458 72.7147 94.3489C70.5624 94.972 59.2462 93.047 58.4698 94.6418C58.4468 94.726 60.0403 95.2752 58.9637 95.9297C57.5324 96.7997 58.8178 93.8692 57.1497 93.6164C56.8983 93.5779 52.2573 93.8745 52.1054 94.0559C50.6998 95.7006 54.7551 96.3673 54.6984 96.5584C54.5569 97.0399 51.1874 97.3311 51.0504 97.2176C50.92 97.0995 53.6681 94.9202 50.3659 95.7466C50.7442 96.007 51.1224 96.2675 51.5007 96.5279C49.9477 97.0351 49.7997 95.5274 49.4235 95.4353C48.2539 95.1437 46.9885 97.4338 45.1146 94.6052C44.6191 93.8545 45.4417 93.0209 45.3797 92.9084C44.7844 91.898 44.025 94.6008 43.1299 92.5849C43.0625 92.4345 45.1456 91.2268 41.5048 91.2237C41.7553 91.417 42.0059 91.6103 42.2565 91.8036C41.7431 92.2351 38.0568 92.4915 37.5608 92.3895C36.1121 92.0914 37.3755 90.7039 35.9194 90.8697C36.8533 92.7712 32.4253 93.0194 32.68 91.3824C32.0615 93.4383 28.2999 91.8524 26.5317 91.8036C25.4159 91.7743 23.1402 92.6715 22.7857 92.5666C22.3538 92.438 22.485 91.0355 21.7053 90.7232C21.4829 90.6342 19.1616 91.6623 17.124 90.2105C16.7291 89.9308 15.8998 87.5518 16.6337 86.9572C17.89 85.9398 20.2666 87.8563 20.2363 86.4506C20.2006 84.9468 16.9996 85.8412 16.138 85.6449C12.1603 84.7372 14.4572 83.1386 14.3549 82.6541C14.0896 81.4781 11.9162 81.5146 11.8255 81.4089C11.4496 80.9393 12.9898 80.0086 13.013 79.2909C13.0411 78.3564 10.9461 76.67 11.4224 76.355C12.1041 75.9077 14.0295 77.3133 14.1515 77.2462C15.7405 76.3396 13.5625 74.1807 12.9622 73.12C12.7802 72.7937 13.5053 72.2574 13.3544 72.1617C11.0513 70.7095 12.8689 75.1959 11.337 74.8962C9.97031 74.6291 11.7288 73.2104 11.6766 73.1322C11.6091 73.0463 9.97499 72.9689 9.71917 72.4669C9.59309 72.2156 13.8405 69.456 13.6631 68.2187C12.3079 68.4913 10.9527 68.764 9.59751 69.0366C9.49127 67.4233 11.4405 68.6109 11.6421 68.4445C12.048 68.1108 10.9162 67.2944 10.9648 66.7843C10.9909 66.4599 12.3192 65.3022 11.1192 64.825C10.7067 64.6602 9.84123 65.7914 8.33916 64.6358C13.5666 63.16 9.94406 62.2531 9.78998 61.6816C9.63905 61.1102 12.1347 59.7652 9.10543 60.0031C8.97409 56.8635 9.17073 59.0106 10.0315 58.4588C11.0859 57.7805 8.64889 56.7467 12.5028 57.531C12.2835 56.0611 9.18589 56.1651 9.0219 56.0478C8.88029 55.9415 9.56884 55.2185 9.32332 54.9736C6.41939 52.1333 8.41395 53.4303 7.57289 51.6165C7.49809 51.4544 4.75341 50.782 6.84294 50.5178C10.6498 50.0376 12.2408 52.1206 12.8805 47.6674C10.0647 45.733 6.65299 48.6075 5.79704 48.6562C4.48689 48.7263 5.84408 47.8182 5.68264 47.5636C5.62657 47.4814 4.49756 47.5564 4.4824 47.4843C3.67735 44.0878 9.50846 47.4279 11.3443 46.8373C10.8522 46.3286 10.3601 45.82 9.86806 45.3113C10.5357 45.291 11.2033 45.2707 11.8709 45.2503C8.69041 44.2278 11.7588 44.8632 12.5518 42.113C12.7299 41.495 10.6404 42.5548 13.0239 40.8373C11.2659 40.4408 11.8267 39.8789 10.2349 40.6542C10.2759 39.5518 13.8574 38.3083 15.2701 37.7427C10.2796 36.5039 13.1255 40.5473 8.81127 38.408C8.01124 39.773 10.0705 39.5072 9.90256 39.7325C9.3001 40.5426 7.88778 39.2563 6.1838 42.0947C5.90635 42.5607 7.08035 43.9951 5.34309 43.9258C5.15094 43.916 4.04397 42.6902 4.05932 42.6013C4.20607 41.6412 5.3015 42.001 5.34672 41.6003C5.38916 41.2209 4.16704 41.4491 4.16282 41.3439C4.12526 40.1412 5.18251 40.8842 5.02895 40.5077C4.69734 39.6888 0.30137 37.1006 6.03854 37.8587C1.27321 39.2185 5.42843 39.1867 7.28418 38.6644C7.75743 38.5334 7.87728 37.815 8.55161 37.5657C9.41901 37.2428 10.4343 37.5877 10.8831 37.4558C11.3658 37.3105 8.62298 35.6124 12.5899 36.1191C10.571 34.43 7.00489 36.2308 5.02169 35.0448C1.02053 32.6482 7.81148 32.1337 8.51892 31.9014C8.7074 31.8385 8.07552 30.8683 8.20116 30.8088C8.40661 30.7177 12.2608 31.1662 12.6408 30.3633C13.0198 29.5611 11.2291 30.4002 11.1101 29.5637C11.0294 29.0005 15.6789 28.0015 13.1619 27.6166C11.4272 27.3527 8.22952 29.6163 7.69092 27.1832C10.2421 26.9818 12.7933 26.7804 15.3445 26.5789C13.9482 25.6532 12.5518 24.7275 11.1555 23.8017C14.0189 23.5082 16.4944 24.5533 19.214 23.228C12.6789 20.2616 21.3359 20.8606 21.4311 20.4996C21.4629 20.2837 18.8907 17.8759 18.4768 17.4355C20.7561 16.5093 27.6821 16.0566 23.63 13.0836C24.3655 13.7549 26.1466 12.0978 26.1231 11.9727C25.8969 10.6592 22.0123 11.5109 22.6459 10.3247C23.3801 8.94802 24.4089 10.8156 25.5384 10.6665C31.3345 9.88893 29.7444 3.03215 35.5562 4.11716C35.4406 3.87301 35.325 3.62886 35.2094 3.3847C41.5265 3.77332 47.8437 4.16192 54.1609 4.55052C56.6325 2.4566 63.2104 1.18153 66.4411 1.4132C67.0917 1.45831 70.2857 2.55726 70.5267 2.74992C70.973 3.11916 68.5189 3.26005 69.6279 3.95235C69.862 4.09446 75.2695 4.55621 74.8828 3.3847C74.2768 3.24888 72.3805 3.83775 72.0701 3.56171C69.8899 1.59144 86.5605 3.16547 87.3864 2.37148C87.0172 1.99102 86.648 1.61055 86.2788 1.23009C87.3307 1.41727 88.3827 1.60445 89.4346 1.79163ZM41.0962 95.8809C40.4649 97.0564 38.8826 96.1735 37.9476 96.5035C36.6559 96.9655 34.4601 101.492 35.4055 96.9552C37.3024 96.5971 39.1993 96.239 41.0962 95.8809ZM68.8198 97.6327C67.5478 97.0013 68.5344 94.4674 69.577 95.5208C69.6927 95.6405 70.5408 98.4825 68.8198 97.6327ZM55.4846 96.4302C55.5382 96.3967 56.6374 96.4637 56.6758 96.5035C57.6616 97.5208 54.3474 97.3129 55.4846 96.4302ZM119.904 95.1301C118.502 95.2395 119.517 97.543 120.389 96.595C120.443 96.5348 119.996 95.1248 119.904 95.1301ZM118.907 95.0691C117.818 93.0064 115.626 97.1869 117.369 96.7659C117.538 96.7234 118.957 95.1695 118.907 95.0691ZM64.2858 96.6255C64.4289 95.835 65.741 96.2167 66.3013 96.4058C66.2861 97.1276 64.8353 96.5372 64.2858 96.6255ZM97.5531 96.4058C97.6088 95.7843 93.0482 95.8186 92.7376 96.6378C93.4573 96.2902 97.5007 96.9643 97.5531 96.4058ZM109.249 95.533C109.133 95.4255 107.558 95.5889 107.604 96.1372C108.373 96.8566 109.769 96.0193 109.249 95.533ZM132.495 95.5696C132.58 95.4318 131.4 91.9421 134.196 94.239C134.606 94.5753 133.14 95.4871 133.286 95.6123C133.592 95.8565 133.833 95.9704 134.027 95.9908C132.725 96.28 131.372 96.4161 131.242 96.2044C130.627 95.2046 132.457 95.6271 132.495 95.5696ZM144.699 92.9694C144.967 92.4002 146.68 92.7045 147.07 92.9389C147.137 92.983 146.845 94.479 147.617 94.3672C148.236 94.2748 147.311 92.7425 148.517 92.9877C149.736 93.2338 148.107 94.3258 148.214 94.4038C148.357 94.5059 150.243 93.8179 150.184 94.709C150.14 95.369 148.12 94.9227 147.62 95.063C146.98 95.2433 147.756 96.343 146.687 96.1067C146.015 95.9592 146.387 94.0254 146.246 93.9277C146.127 93.849 143.778 94.9619 144.702 92.9755C144.701 92.9735 144.7 92.9714 144.699 92.9694ZM134.379 95.9053C134.281 95.9707 134.166 96.0054 134.027 95.9908C134.145 95.9645 134.263 95.934 134.379 95.9053ZM44.7714 95.0325C45.4326 95.6289 43.47 96.3936 42.7268 95.6123C42.7139 94.9822 44.6661 94.9396 44.7714 95.0325ZM135.587 94.3305C137.521 94.815 136.098 95.4813 134.379 95.9053C134.925 95.5413 134.937 94.1687 135.587 94.3305ZM80.6716 95.1362C80.7531 95.2805 80.8049 95.5053 80.8114 95.8748C80.597 95.4707 80.5778 95.2537 80.6716 95.1362ZM85.1838 95.7954C86.7307 94.6701 83.5879 94.7155 83.6077 95.5208C83.6171 95.8248 85.1219 95.8402 85.1838 95.7954ZM121.701 95.24C121.56 95.1299 123.758 91.7316 120.567 94.2817C122.27 94.6822 120.473 95.0523 120.499 95.3499C120.569 96.2052 123.43 95.383 124.064 95.7527C124.56 94.2223 122.169 95.6028 121.705 95.24C121.704 95.24 121.703 95.24 121.701 95.24ZM166.693 93.7934C166.306 94.6902 165.076 94.4016 164.246 94.3489C164.633 93.4521 165.863 93.7406 166.693 93.7934ZM383.887 93.9216C378.2 94.7507 377.463 91.0988 382.666 92.5421C382.768 92.5725 384.232 93.5514 383.887 93.9216ZM335.078 92.9755C334.542 91.3839 336.315 91.1279 337.48 91.7853C337.744 91.9331 338.718 93.5453 337.606 93.8606C337.641 91.9313 335.92 91.1944 335.078 92.9755ZM136.68 93.3112C137.243 92.2498 138.977 93.0053 139.89 93.1647C139.333 94.0387 137.488 93.6434 136.68 93.3112ZM365.198 92.0172C364.599 91.8967 364.194 93.2815 364.298 93.3967C364.761 93.9251 365.882 92.8055 365.198 92.0172ZM131.084 93.1464C131.004 92.5121 133.301 91.9016 133.461 93.4699C132.97 93.3564 131.141 93.5445 131.084 93.1464ZM165.128 93.3173C164.772 92.9948 166.618 92.4174 167.176 92.7375C167.131 93.4126 165.362 93.527 165.128 93.3173ZM355.547 92.4872C355.011 92.3669 353.67 92.3303 353.521 92.8901C353.337 93.5898 355.303 93.3513 355.547 92.4872ZM455.427 91.2787C455.495 91.5301 453.418 93.3426 452.495 92.884C450.742 92.0064 455.354 91.1011 455.427 91.2787ZM370.873 91.3031C372.566 92.6201 370.686 91.3446 370.76 92.7314C371.899 92.7813 374.733 92.8497 372.785 91.4862C372.405 91.2224 371.404 91.3929 370.873 91.3031ZM369.311 90.8392C369.13 91.2884 367.91 92.7046 368.964 92.6032C369.452 92.5541 370.238 90.9805 369.311 90.8392ZM442.559 91.8951C441.042 90.6675 447.997 91.3261 448.197 91.5411C448.303 91.6547 448.372 91.7617 448.411 91.8524C448.667 91.4633 449.98 91.3932 450.133 92.3773C449.739 92.2961 448.663 92.3827 448.538 92.2736C448.484 92.2271 448.444 92.1836 448.417 92.1393C447.953 92.9936 442.85 92.1279 442.559 91.8951ZM431.034 90.6317C432.77 88.8206 433.077 91.8998 432.928 91.9989C431.038 93.2592 432.27 90.9883 432.212 90.8819C432.08 90.705 430.738 91.7587 431.039 90.6317C431.038 90.6317 431.036 90.6317 431.034 90.6317ZM440.196 91.3885C440.268 91.3484 441.725 91.4437 441.785 91.4923C442.98 92.5272 438.855 92.2621 440.196 91.3885ZM153.897 90.8148C154.941 91.1209 153.917 92.2538 153.224 91.8463C153.167 91.8062 152.977 90.5444 153.897 90.8148ZM368.478 91.1444C368.236 90.9303 362.047 90.1231 362.418 91.8341C362.944 91.6322 369.979 92.5129 368.478 91.1444ZM322.224 90.7293C323.315 90.7426 322.125 92.3563 321.543 91.7548C321.327 91.5313 321.949 90.727 322.224 90.7293ZM127.988 91.6815C126.854 92.5681 127.089 89.5939 128.071 90.6134C128.11 90.6533 128.032 91.6469 127.988 91.6815ZM330.943 91.6571C327.179 92.635 328.071 87.519 332.964 89.2461C332.811 89.474 332.658 89.7019 332.505 89.9297C338.153 90.6972 332.891 90.2903 331.508 90.5767C330.982 90.6856 331.423 91.5396 330.947 91.6632C330.946 91.6612 330.945 91.6591 330.943 91.6571ZM316.484 90.6317C312.859 87.0005 319.779 89.3651 321.764 88.8921C319.84 90.3916 317.335 90.1647 320.742 91.6998C315.76 91.9967 317.834 90.5505 317.635 90.4302C317.4 90.2954 316.639 90.7876 316.484 90.6317ZM326.046 90.6073C326.256 90.5013 327.834 91.2405 328.403 91.12C327.608 92.3604 324.655 91.3277 326.046 90.6073ZM418.952 91.474C419.083 90.5021 419.407 89.7862 420.653 90.1495C420.268 90.6378 419.472 91.0579 418.952 91.474ZM39.8978 90.766C39.0397 90.6963 37.331 90.33 37.855 91.3519C37.9123 91.439 39.8952 91.3395 39.8978 90.766ZM350.501 90.357C350.319 90.2375 345.599 90.1573 347.229 91.2298C347.721 91.5533 352.015 91.4159 350.501 90.357ZM374.942 90.4791C374.547 90.4689 372.942 90.652 372.908 90.8819C372.8 91.6766 374.769 91.2397 374.942 90.4791ZM35.5689 89.771C35.4559 89.6702 32.8349 89.8488 33.123 90.3204C33.6699 91.2121 35.9562 90.1184 35.5689 89.771ZM157.694 88.5381C157.913 88.5021 158.203 89.5579 158.279 89.5696C158.457 89.5847 162.468 89.1786 160.935 90.534C160.68 90.7612 154.909 90.2406 154.159 90.1067C153.869 88.6575 156.334 90.0361 156.933 89.887C157.039 89.8587 157.107 88.6462 157.692 88.5442C157.693 88.5422 157.694 88.5401 157.694 88.5381ZM425.443 90.4486C425.62 89.5271 430.335 88.917 430.28 90.0335C428.668 90.1719 427.056 90.3102 425.443 90.4486ZM423.048 90.296C422.042 89.6442 424.398 89.4285 425.093 89.7161C425.1 90.336 423.195 90.3913 423.048 90.296ZM365.999 87.0366C365.526 87.2619 366.982 88.6063 366.657 88.8677C366.448 89.0304 365.389 88.5265 365.051 88.947C364.956 89.0807 366.035 90.3444 366.348 90.2899C366.792 90.2169 366.361 89.2224 366.845 89.2156C368.453 89.1942 369.878 89.9035 371.385 89.887C371.521 89.8836 370.466 89.1812 371.626 89.1912C371.806 89.1914 372.883 90.2374 374.272 90.0823C377.339 86.8427 379.59 90.0236 383.482 88.8555C383.335 88.5504 380.425 87.7321 380.253 87.7019C377 87.1691 371.173 87.1106 367.766 87.1037C366.892 87.1009 367.316 87.7866 366.94 87.8117C366.642 87.8303 366.996 86.5606 365.999 87.0366ZM40.3535 90.064C39.9446 88.7958 38.5099 89.5985 37.5935 89.533C37.9161 90.6769 39.4581 89.783 40.3535 90.064ZM401.879 89.3133C401.42 89.3622 399.996 88.9803 399.878 89.3621C399.727 89.8607 401.782 90.1752 401.879 89.3133ZM180.308 88.8982C180.353 88.8636 181.458 88.9315 181.499 88.9714C182.487 89.9892 179.172 89.7807 180.308 88.8982ZM206.741 89.1424C207.579 88.9858 208.424 88.5895 208.706 89.6184C208.172 89.4609 206.643 89.859 206.741 89.1424ZM243.208 89.1118C243.035 87.7644 245.557 88.637 246.033 88.7578C245.856 89.3567 243.334 90.0827 243.208 89.1118ZM418.77 87.2441C420.312 87.3238 419.986 85.2827 420.965 86.2065C421.125 86.3626 421.641 90.6127 419.947 89.0203C419.642 88.734 420.835 87.724 418.77 87.2441ZM333.761 89.2888C334.154 88.3974 335.379 88.662 336.207 88.7334C336.022 89.3957 334.351 89.2253 333.761 89.2888ZM30.8351 88.7517C30.112 87.4933 26.7708 88.4268 27.5975 89.2583C27.7151 89.3668 30.3664 88.7042 30.8351 88.7517ZM140.6 89.2461C141.975 88.2551 139.128 87.9482 138.229 88.9165C138.636 88.8531 140.508 89.3113 140.6 89.2461ZM234.448 88.3794C234.514 88.3388 235.972 88.4344 236.037 88.4832C237.232 89.518 233.107 89.253 234.448 88.3794ZM198.049 87.5066C198.574 86.691 202.027 87.3491 202.801 88.1658C202.056 89.3582 197.397 88.5251 198.049 87.5066ZM412.426 87.8239C413.526 87.7817 414.569 88.0329 415.58 88.3855C415.367 89.0721 412.542 88.3368 412.426 87.8239ZM239.799 88.2939C239.877 88.2995 239.953 88.3772 240.028 88.3855C239.95 88.3564 239.874 88.3231 239.799 88.2939ZM387.805 87.3417C386.883 87.0705 387.075 88.3286 387.132 88.3672C387.825 88.7746 388.849 87.6478 387.805 87.3417ZM39.3004 88.1963C38.9808 87.0609 37.4304 87.9415 36.5385 87.6714C36.7973 88.568 38.582 88.3154 39.3004 88.1963ZM312.602 88.3061C311.444 87.0751 316.156 85.6451 317.149 86.4384C317.222 87.199 312.772 88.4746 312.602 88.3061ZM136.331 87.5432C136.239 86.6535 134.26 87.7271 134.681 88.1474C134.947 88.4149 136.387 88.0959 136.331 87.5432ZM319.518 86.9572C319.961 86.6857 320.993 87.5636 320.63 88.0986C320.163 88.7844 319.404 87.0349 319.518 86.9572ZM359.239 86.2431C359.045 86.1072 356.442 87.0203 357.518 87.9277C358.264 88.5583 358.383 87.2723 358.558 87.2685C358.754 87.2726 362.933 88.8464 359.239 86.2431ZM286.211 87.531C287.193 87.1889 288.381 87.586 289.409 87.5615C288.99 88.1117 286.629 88.2617 286.211 87.531ZM143.961 87.3051C143.723 86.9454 137.225 86.7287 140.916 87.8362C141.131 87.8987 144.686 88.3948 143.961 87.3051ZM418.77 87.2441C418.576 87.234 418.351 87.1916 418.091 87.1037C418.349 87.1383 418.574 87.1986 418.77 87.2441ZM401.258 87.1098C401.613 86.4622 399.825 86.2891 399.297 86.6337C399.135 87.4249 401.21 87.2003 401.258 87.1098ZM289.487 86.6581C290.079 86.2875 291.154 86.683 291.887 86.6398C291.763 87.2419 289.743 87.2697 289.487 86.6581ZM247.896 85.9806C249.072 86.3384 250.519 86.1739 250.542 85.4374C250.566 85.5525 250.623 85.6747 250.718 85.7975C250.813 85.9191 252.073 85.5766 252.621 85.828C255.898 87.3212 239.965 86.705 249.2 84.6256C248.765 85.0773 248.331 85.5289 247.896 85.9806ZM193.377 85.7731C192.709 84.8766 190.839 86 191.325 86.3529C191.663 86.5948 194.045 86.6756 193.377 85.7731ZM219.063 85.2421C218.863 85.082 217.038 85.7099 216.991 86.182C218.04 86.6795 219.972 85.9853 219.063 85.2421ZM188.245 84.7232C187.826 84.588 187.292 86.0335 187.341 86.0966C187.767 86.6243 188.949 85.5281 188.245 84.7232ZM415.576 83.3499C414.953 82.9359 412.965 83.9823 412.533 84.9369C412.452 84.7523 412.235 84.5116 411.837 84.2227C411.839 84.2227 411.84 84.2227 411.841 84.2227C411.304 83.8371 395.242 83.4158 406.016 85.2543C406.353 85.3132 405.892 84.4563 407.265 84.6073C407.356 84.6183 407.401 85.3179 407.681 85.3519C408.326 85.4259 411.759 85.8661 412.449 85.3031C412.455 85.4328 412.5 85.5561 412.594 85.6693C413.441 86.6783 416.06 83.6691 415.576 83.3499ZM222.682 85.1139C222.314 84.8546 221.152 85.1008 221.031 85.7182C221.608 86.0207 223.534 85.7186 222.682 85.1139ZM143.76 84.7721C143.011 84.2643 141.115 85.2136 141.688 85.7182C142.039 86.0285 144.623 85.355 143.76 84.7721ZM211.035 85.4435C215.327 86.1733 212.059 85.3845 212.717 84.4791C212.156 84.8006 211.596 85.122 211.035 85.4435ZM435.437 85.6876C434.753 85.4793 435.557 83.6929 436.311 84.6622C436.547 84.97 435.82 85.8008 435.437 85.6876ZM466.337 85.1322C465.753 83.5481 468.605 84.4789 467.493 85.5656C467.442 85.6022 466.379 85.1925 466.337 85.1322ZM444.745 84.4852C444.281 85.5638 443.978 85.6917 442.67 85.4252C444.607 85.1213 442.81 84.1674 444.745 84.4852ZM250.529 85.3214C250.536 85.365 250.543 85.3972 250.542 85.4374C250.533 85.3977 250.529 85.3601 250.529 85.3214ZM184.21 85.004C183.673 84.0903 182.168 84.1576 182.616 85.0773C182.659 85.1624 183.99 85.6791 184.21 85.004ZM412.533 84.9369C412.604 85.1006 412.568 85.2064 412.449 85.3031C412.444 85.181 412.474 85.0658 412.533 84.9369ZM192.294 84.2594C192.241 84.941 194.532 85.2061 194.624 85.1261C195.939 83.9439 193.24 84.2183 192.294 84.2594ZM128.609 83.8138C128.49 83.8849 129.253 85.6446 129.72 84.9552C130.082 84.4203 129.051 83.543 128.609 83.8138ZM449.188 84.0457C449.914 84.0469 450.936 84.0461 451.124 84.8819C450.638 84.7536 449.173 84.6591 449.188 84.0457ZM465.22 83.9847C464.362 84.9673 462.403 84.9645 461.153 84.8026C461.13 83.5092 464.415 84.2888 465.22 83.9847ZM417.544 83.8321C417.485 83.7795 415.665 83.3936 415.914 84.2594C416.277 85.529 418.058 84.3029 417.544 83.8321ZM132.142 84.7477C132.956 84.1514 131.083 82.319 130.225 83.7344C129.784 84.4593 132.005 84.8476 132.142 84.7477ZM179.509 83.8077C178.435 84.3087 181.097 85.2013 181.468 84.296C180.974 84.2233 179.891 83.6303 179.509 83.8077ZM216.045 82.8921C212.661 80.2811 214.504 85.0443 215.104 84.6256C215.189 84.5658 216.128 82.9535 216.045 82.8921ZM22.4389 83.533C21.9598 83.8958 23.7457 85.21 23.9768 84.3448C24.1196 83.8034 22.7452 83.3018 22.4389 83.533ZM266.998 84.589C266.855 84.5973 266.714 84.6059 266.573 84.6134C266.678 84.5708 266.817 84.5569 266.998 84.589ZM169.762 80.3102C172.144 83.9967 171.894 81.1554 172.101 81.1709C172.548 81.2105 173.588 82.2073 174.43 82.0437C173.465 82.4588 172.5 82.8738 171.534 83.2889C172.297 83.555 178.922 84.9121 179.061 84.3143C179.26 83.463 177.175 83.7301 177.114 83.6551C177.027 83.5482 176.701 81.1815 176.508 81.0915C176.19 80.9477 170.65 80.8986 169.762 80.3102ZM208.969 83.3011C209.513 83.5824 209.668 84.5201 209.92 84.296C210.006 84.2193 210.02 83.3249 210.314 83.0935C209.866 83.1627 209.417 83.2319 208.969 83.3011ZM165.497 83.6246C164.822 82.5317 167.846 82.9467 167.943 83.0691C168.46 83.8099 166.048 84.5174 165.497 83.6246ZM191.15 83.4659C191.04 83.4021 188.718 83.0608 188.737 83.6673C189.351 84.1296 192.455 84.2643 191.15 83.4659ZM210.677 83.0325C211.493 83.1368 213.035 84.0375 212.858 82.6907C212.857 82.6907 212.856 82.6907 212.855 82.6907C212.129 82.8046 211.403 82.9186 210.677 83.0325ZM134.928 81.9033C133.416 79.7584 134.132 82.4687 135.471 83.1607C135.876 82.1977 135.176 82.2523 134.928 81.9033ZM130.09 80.3041C129.67 79.9182 125.336 80.3411 125.998 81.476C126.233 81.8805 128.725 80.8605 128.839 80.9389C129.013 81.0552 128.218 82.3108 129.547 82.062C129.47 81.6366 130.234 80.4331 130.09 80.3041ZM133.677 80.53C132.175 78.8987 131.837 81.9074 132.967 81.9155C133.408 81.9208 133.891 80.7653 133.677 80.53ZM139.812 80.7863C139.272 80.501 137.832 80.0848 136.84 81.0854C138.168 81.1709 139.496 81.2563 140.824 81.3418C140.977 80.7749 140.285 81.0371 139.809 80.7863C139.81 80.7863 139.811 80.7863 139.812 80.7863ZM474.246 76.2757C473.053 75.4225 475.802 75.0955 475.919 75.3052C476.264 76.001 474.78 76.6567 474.246 76.2757ZM13.1165 56.2004C12.7849 55.8603 12.5681 54.7413 11.8382 55.3276C12.5724 56.1536 13.3066 56.9797 14.0408 57.8057C14.6113 55.913 13.479 56.5756 13.1165 56.2004ZM10.3129 49.2849C10.4166 49.239 9.85012 46.3286 11.19 48.2717C12.0952 49.5836 7.17231 50.8623 6.28367 49.5718C7.26557 48.9721 9.42018 49.6585 10.3129 49.2849ZM1.6897 36.6868C1.63293 36.4547 3.50328 36.1142 3.71976 36.2778C4.8565 37.1403 1.9968 37.9302 1.6897 36.6868ZM7.65642 37.2422C6.77927 36.677 8.72243 36.3127 9.30153 36.6379C9.3577 37.1796 7.79192 37.3245 7.65642 37.2422ZM462.16 34.1232C461.211 32.1451 460.362 36.4033 461.823 35.5453C461.892 35.505 462.201 34.22 462.16 34.1232ZM3.51821 33.7508C4.39536 34.316 2.4522 34.6804 1.87309 34.3551C1.81924 33.814 3.38465 33.6682 3.51821 33.7508ZM461.492 29.4111C460.232 27.9877 460.676 32.7649 460.833 32.9574C461.482 33.7176 463.707 31.8426 464.161 31.3765C460.831 32.0934 462.086 30.0818 461.492 29.4111ZM455.678 32.2798C454.509 32.7895 457.497 33.7642 458.068 32.4324C457.486 32.4962 456.011 32.1325 455.678 32.2798ZM448.58 30.7478C447.951 30.5767 446.081 30.1671 445.767 30.9187C446.454 30.7826 448.315 31.5212 448.58 30.7478ZM447.156 28.4955C446.174 27.4742 445.938 30.45 447.071 29.5637C447.115 29.5294 447.192 28.5523 447.156 28.4955ZM441.631 27.4213C440.986 26.2378 440.25 29.1198 441.295 29.1975C441.605 29.2152 441.699 27.5569 441.631 27.4213ZM459.914 24.2717C458.991 23.7635 457.801 25.8274 459.773 26.054C459.08 26.3694 458.388 26.6847 457.695 27.0001C460.278 28.1569 460.088 25.2948 460.829 25.4131C461.865 25.5813 461.784 27.9431 461.576 28.6847C462.425 27.2378 466.034 27.2146 468.12 26.9391C466.287 26.3318 463.312 25.279 461.503 24.8943C460.987 24.7829 460.485 25.4306 460.045 25.3582C459.339 25.2386 459.966 24.3059 459.918 24.2717C459.917 24.2717 459.915 24.2717 459.914 24.2717ZM434.368 27.3785C432.472 26.038 433.671 28.9323 434.742 28.4162C434.788 28.3764 434.415 27.4113 434.368 27.3785ZM1.00514 24.9554C3.53719 26.1652 1.6967 27.7686 6.99365 25.3338C4.76828 27.0575 6.87058 26.5734 6.4362 27.2687C6.08773 27.8187 4.78204 27.3632 5.54101 28.4711C4.5434 27.2652 0.212251 27.5988 0.0191609 27.403C0.0209767 27.403 0.0227925 27.403 0.0246083 27.403C-0.0913636 27.2869 0.19717 24.5706 1.00514 24.9554ZM448.571 23.1792C447.939 19.6672 447.691 25.2414 446.448 22.3307C444.794 26.5574 451.019 22.3314 451.772 25.9014C445.012 25.4866 456.239 29.4389 451.52 24.0947C455.407 26.0344 452.794 23.4329 453.394 22.7519C454.036 22.0265 456.234 22.8148 456.123 21.5067C456.122 21.5067 456.12 21.5067 456.119 21.5067C454.774 21.5983 453.429 21.6898 452.085 21.7814C453.401 24.6032 450.652 23.7571 449.72 21.4579C449.337 22.0317 448.954 22.6054 448.571 23.1792ZM456.183 25.8282C456.05 25.7636 453.125 26.1591 453.314 26.7254C453.704 27.0867 457.856 26.6535 456.183 25.8282ZM469.057 25.2117C468.007 25.2048 466.382 24.6543 465.81 25.7183C466.861 25.7255 468.485 26.2763 469.057 25.2117ZM414.973 25.0103C413.634 25.8834 417.756 26.142 416.564 25.1079C416.505 25.0593 415.039 24.9695 414.973 25.0103ZM445.526 23.7102C444.165 22.6369 444.808 26.0531 445.816 25.1629C445.875 25.1104 445.589 23.7591 445.526 23.7102ZM3.057 24.5403C3.14805 23.7033 6.82181 24.2912 7.47302 24.2839C7.10303 25.0619 2.95254 25.4998 3.057 24.5403ZM470.905 22.0805C468.815 19.0709 465.979 22.5471 465.669 22.4711C465.359 22.3937 465.844 21.0781 465.774 21.0428C465.613 20.9691 462.32 21.0795 462.16 21.171C462.046 21.2424 462.642 23.0912 461.962 23.6736C463.288 22.6231 469.309 23.2803 469.622 23.0754C469.864 22.9118 468.039 20.9704 470.902 22.0805C470.903 22.0805 470.904 22.0805 470.905 22.0805ZM464.891 22.0683C465.714 22.8432 463.407 22.9402 462.849 22.6542C461.608 22.0143 464.786 21.9765 464.891 22.0683ZM459.342 21.3541C459.079 21.1803 456.701 21.0224 456.499 21.8852C457.624 23.0043 459.94 21.7592 459.342 21.3541ZM432.882 21.4701C432.265 21.5806 430.567 20.9177 430.469 21.6715C431.087 21.5616 432.785 22.224 432.882 21.4701ZM15.5915 17.9605C14.5655 17.3297 16.9426 17.072 17.6361 17.3745C17.6737 17.8774 15.6788 18.0146 15.5915 17.9605ZM445.295 16.5017C444.93 16.2724 437.47 16.8445 436.423 17.1975C437.447 17.7676 444.84 17.8114 445.175 17.5332C445.273 17.4499 445.342 16.5377 445.295 16.5017ZM461.429 16.1537C462.113 15.0436 462.559 16.3751 462.645 16.3918C463.491 16.5617 465.245 16.3114 464.86 17.3806C463.368 16.9492 460.067 18.3584 461.429 16.1537ZM432.352 16.4467C429.819 16.8587 434.685 18.0283 434.046 16.8679C434.005 16.7977 432.614 16.4035 432.352 16.4467ZM446.129 16.1782C446.687 15.2811 454.15 16.0547 455.348 16.0561C454.274 17.7106 453.41 16.4539 451.968 16.5383C451.579 16.563 451.683 17.2513 451.641 17.2524C450.968 17.2843 451.472 16.4893 451.057 16.4772C450.794 16.4718 445.342 17.4421 446.129 16.1782ZM461.819 15.3847C462.236 14.7483 466.896 14.477 467.083 14.6461C468.485 15.9039 462.181 15.6062 461.819 15.3847ZM445.444 14.7072C446.246 12.7842 449.953 14.072 447.416 15.0307C447.174 15.1179 446.148 14.2843 445.444 14.7072ZM432.623 14.6156C432.498 14.5591 429.858 14.1747 429.81 14.7865C430.192 15.0243 434.041 15.2376 432.623 14.6156ZM433.992 12.5464C433.928 12.5611 434.547 13.7395 433.309 13.5902C433.206 13.5761 433.013 12.2503 431.457 12.7356C431.141 12.8356 430.652 13.7127 430.687 13.7672C432.308 15.8478 437.189 11.8629 433.992 12.5464ZM461.904 14.3104C461.653 13.7508 462.259 12.0898 462.805 12.931C463.039 13.2942 462.602 14.291 461.904 14.3104ZM424.248 14.0785C425.783 13.0711 420.964 12.8807 420.718 13.1385C420.873 13.766 424.095 14.1769 424.248 14.0785ZM17.9938 10.1843C17.9926 10.1843 17.9914 10.1843 17.9901 10.1843C19.2816 10.4125 18.4817 11.2505 18.5421 11.2769C21.293 12.5077 20.5633 10.6097 20.9935 10.3857C21.9158 9.90128 21.7672 12.2094 23.3231 11.2524C20.7513 12.6656 23.0923 12.0732 23.1652 12.8943C23.4534 16.2454 19.7409 11.3252 18.4586 12.0276C18.2799 12.1249 19.5991 13.1944 19.1414 13.4986C17.653 14.4845 13.0383 9.31142 17.9938 10.1843ZM463.226 12.7845C463.825 11.8002 468.37 12.7549 467.165 13.5658C466.971 13.6958 462.346 14.2192 463.226 12.7845ZM250.941 11.3318C252.033 10.4799 249.502 9.47855 249.033 10.1416C248.8 10.4719 250.461 11.7056 250.941 11.3318ZM233.193 7.68785C231.896 7.86077 230.527 11.4131 232.142 10.8618C232.314 10.8015 233.342 8.1806 233.193 7.68785ZM318.413 9.51287C317.057 8.24339 317.138 10.6021 318.133 10.5688C318.484 10.5574 318.455 9.55304 318.413 9.51287ZM266.691 9.81805C266.556 9.73572 264.989 9.88633 265.046 10.4284C265.625 10.7537 267.568 10.3832 266.691 9.81805ZM318.843 9.17716C318.039 9.60227 319.422 11.3083 320.404 9.64104C319.906 9.7778 318.926 9.13373 318.843 9.17716ZM442.644 9.49456C441.971 10.4631 440.068 10.1704 438.974 10.3369C438.857 9.08208 441.863 9.72205 442.644 9.49456ZM238.703 9.11613C237.474 10.0005 240.106 10.7245 239.865 9.5556C239.831 9.4921 238.751 9.07841 238.703 9.11613ZM362.133 9.04899C361.24 9.79749 364.076 10.8041 363.295 9.48846C363.257 9.43481 362.182 9.00735 362.133 9.04899ZM374.515 9.48235C373.838 9.22987 370.949 9.30754 372.073 10.0378C372.248 10.15 374.464 10.1679 374.515 9.48235ZM21.0697 9.48235C20.7047 8.19337 22.8237 8.5002 23.127 8.72549C23.2462 8.81918 21.5459 11.1594 21.0697 9.48235ZM309.611 9.31145C308.91 9.47272 307.092 9.16625 306.771 9.84247C307.629 9.7025 309.842 10.6585 309.611 9.31145ZM244.304 9.11002C243.234 7.70936 241.406 7.8476 241.858 9.67767C243.878 9.55504 241.609 8.03275 244.304 9.11002ZM323.359 7.66954C322.796 7.56269 322.366 9.32021 322.429 9.403C323.038 10.1908 323.917 8.35334 323.359 7.66954ZM281.165 9.11613C281.133 8.36506 279.33 8.70595 279.571 9.18937C279.65 9.35166 281.191 9.72395 281.165 9.11613ZM419.039 9.0673C418.213 8.38175 420.735 7.71154 421.481 8.51186C421.844 9.66506 419.143 9.14604 419.039 9.0673ZM338.951 8.10901C339.035 6.99438 336.218 7.62457 337.328 8.54848C337.606 8.77966 338.922 8.4817 338.951 8.10901ZM365.921 6.77229C364.031 8.10148 371.967 9.04514 369.881 7.38876C369.732 7.27075 366.086 6.66004 365.921 6.77229ZM378.88 7.60239C378.554 7.45594 378.717 3.71051 380.066 5.15479C380.243 5.3421 379.415 6.3322 379.56 6.55865C379.645 6.68771 382.578 7.21375 382.714 7.1263C382.859 7.02702 382.688 5.82658 382.835 5.69193C383.001 5.54144 384.807 6.59596 385.753 6.60748C387.536 6.62726 387.728 5.62809 387.874 5.62479C388.3 5.61816 389.016 6.32759 389.879 6.32671C394.23 6.31874 400.884 5.4718 404.333 7.59019C401.263 6.7395 398.338 7.64207 395.284 7.91979C396.179 5.83417 390.792 9.52677 393.943 7.1202C392.492 7.64221 379.949 8.05968 378.884 7.60239C378.883 7.60239 378.882 7.60239 378.88 7.60239ZM228.071 6.63801C228.868 5.35919 224.777 5.64685 224.43 7.1263C224.97 7.33162 227.972 6.78295 228.071 6.63801ZM246.944 3.51899C247.324 3.29825 247.685 0.798584 249.677 2.0663C249.679 2.0663 249.681 2.0663 249.683 2.0663C250.265 2.43652 249.601 3.0456 249.708 3.26263C249.747 3.35126 251.564 4.5947 250.055 4.79467C247.754 5.10147 249.838 2.93508 248.611 2.90862C248.461 2.90657 246.139 4.25962 246.274 4.55663C246.288 4.59122 246.987 4.30499 247.102 4.42845C247.538 4.8925 247.326 5.67308 247.387 5.71024C247.588 5.80543 251.26 4.47559 251.794 5.63699C251.968 6.0115 245.941 6.87544 245.706 6.68073C245.557 6.55803 245.62 4.3913 245.466 4.17819C245.387 4.07205 242.963 4.884 242.648 4.68481C242.557 4.62719 242.487 4.56509 242.436 4.5139C242.803 5.18426 240.607 5.13599 240.674 4.37962C240.713 4.08233 242.224 4.25441 242.278 4.30637C242.302 4.32837 242.322 4.3587 242.341 4.37962C242.029 3.56267 247.145 3.59951 246.04 2.38369C247.523 1.71765 245.83 4.16726 246.944 3.51899ZM254.073 2.18227C253.92 2.41014 253.767 2.63802 253.614 2.86589C256.21 2.30814 259.206 3.40509 262.197 3.39691C262.956 3.3965 262.083 2.00286 263.078 2.38369C263.875 2.68889 264.757 3.98154 264.323 4.26975C264.218 4.34166 262.595 3.49973 261.783 3.58613C259.386 3.84193 259.991 5.03706 259.851 5.06934C259.696 5.10332 258.188 4.26284 257.363 4.30027C255.292 4.397 254.345 5.13076 251.515 4.17209C253.148 3.38443 252.253 1.6733 254.073 2.18227ZM350.85 4.72753C350.949 3.97529 352.648 4.64269 353.265 4.53221C353.168 5.28631 351.468 4.61699 350.85 4.72753ZM97.662 3.75093C97.1401 4.98536 101.052 5.29102 100.021 4.26365C99.7927 4.03564 98.1535 3.75971 97.662 3.75093ZM115.234 4.50169C115.757 4.16041 113.65 3.27164 113.654 4.22703C113.657 4.53339 115.166 4.54607 115.234 4.50169ZM287.635 3.39691C287.734 3.35826 289.173 3.6332 289.218 3.696C290.172 5.00672 285.434 4.24915 287.635 3.39691ZM136.595 2.98186C134.771 3.79097 140.26 4.14165 138.583 3.11004C138.499 3.05979 136.682 2.94254 136.595 2.98186ZM144.225 2.75602C143.787 2.79939 141.846 2.39764 141.82 2.77433C141.782 3.38203 144.004 3.79726 144.225 2.75602ZM323.738 3.00627C323.528 1.6154 326.088 2.66871 326.978 2.49356C327.189 3.8854 324.628 2.83063 323.738 3.00627ZM307.579 1.98084C318.372 0.884407 315.993 3.85608 306.937 2.65836C306.924 1.76607 306.898 2.0499 307.579 1.98084ZM321.4 2.14565C321.007 3.03669 319.782 2.77247 318.954 2.70109C319.103 2.08159 320.802 2.30579 321.4 2.14565ZM93.0045 1.84046C93.6814 0.714867 96.6788 2.10253 96.1458 2.5668C96.0218 2.66707 92.7559 2.45946 93.0045 1.84046ZM288.539 2.20669C288.288 0.854012 291.528 1.40577 291.777 1.70618C292.777 2.91449 288.801 1.90813 288.539 2.20669ZM339.056 1.81605C339.629 0.756516 341.254 1.30148 342.299 1.31554C341.823 2.22151 339.943 1.83511 339.056 1.81605ZM331.51 0.985931C331.576 0.945267 333.033 1.04092 333.099 1.0897C334.293 2.12456 330.169 1.85954 331.51 0.985931ZM16.2034 0.00933838C16.252 -0.0248108 17.3561 0.0427475 17.3946 0.0825806C18.3801 1.09982 15.0663 0.891968 16.2034 0.00933838Z" fill="#F3D03D"/>
</svg>
